<mxfile host="app.diagrams.net" agent="Mozilla/5.0 (X11; Ubuntu; Linux x86_64; rv:137.0) Gecko/20100101 Firefox/137.0" version="26.2.12">
  <diagram name="第 1 页" id="pvQhF8AryuaIjtNejtY6">
    <mxGraphModel dx="1503" dy="837" grid="1" gridSize="10" guides="1" tooltips="1" connect="1" arrows="1" fold="1" page="1" pageScale="1" pageWidth="1169" pageHeight="1654" math="0" shadow="0">
      <root>
        <mxCell id="0" />
        <mxCell id="1" parent="0" />
        <mxCell id="68v2hLTrzGkSt8X37CVW-189" value="" style="shape=ext;double=1;rounded=1;whiteSpace=wrap;html=1;fillColor=none;fontSize=10;container=0;" parent="1" vertex="1">
          <mxGeometry x="1420" y="200" width="690" height="540" as="geometry" />
        </mxCell>
        <mxCell id="68v2hLTrzGkSt8X37CVW-85" value="" style="shape=ext;double=1;rounded=1;whiteSpace=wrap;html=1;fillColor=none;fontSize=10;container=0;" parent="1" vertex="1">
          <mxGeometry x="1420" y="787" width="690" height="460" as="geometry" />
        </mxCell>
        <mxCell id="T4NdSgvmd6i7ijyYlSUB-66" value="" style="shape=ext;double=1;rounded=1;whiteSpace=wrap;html=1;fillColor=none;" parent="1" vertex="1">
          <mxGeometry x="120" y="100" width="600" height="740" as="geometry" />
        </mxCell>
        <mxCell id="T4NdSgvmd6i7ijyYlSUB-71" value="" style="shape=ext;double=1;rounded=1;whiteSpace=wrap;html=1;fillColor=none;" parent="1" vertex="1">
          <mxGeometry x="120" y="840" width="600" height="480" as="geometry" />
        </mxCell>
        <mxCell id="T4NdSgvmd6i7ijyYlSUB-25" style="edgeStyle=orthogonalEdgeStyle;rounded=0;orthogonalLoop=1;jettySize=auto;html=1;exitX=0.5;exitY=1;exitDx=0;exitDy=0;entryX=0.5;entryY=0;entryDx=0;entryDy=0;" parent="1" source="T4NdSgvmd6i7ijyYlSUB-1" target="vzksnj_4x7iH5aSXOHEv-4" edge="1">
          <mxGeometry relative="1" as="geometry" />
        </mxCell>
        <mxCell id="T4NdSgvmd6i7ijyYlSUB-1" value="Raw data&lt;div&gt;(both target and source data)&lt;/div&gt;" style="rounded=0;whiteSpace=wrap;html=1;" parent="1" vertex="1">
          <mxGeometry x="340" width="160" height="60" as="geometry" />
        </mxCell>
        <mxCell id="T4NdSgvmd6i7ijyYlSUB-29" style="edgeStyle=orthogonalEdgeStyle;rounded=0;orthogonalLoop=1;jettySize=auto;html=1;entryX=0.5;entryY=0;entryDx=0;entryDy=0;" parent="1" source="T4NdSgvmd6i7ijyYlSUB-2" target="T4NdSgvmd6i7ijyYlSUB-4" edge="1">
          <mxGeometry relative="1" as="geometry">
            <Array as="points">
              <mxPoint x="350" y="380" />
              <mxPoint x="220" y="380" />
            </Array>
          </mxGeometry>
        </mxCell>
        <mxCell id="T4NdSgvmd6i7ijyYlSUB-30" style="edgeStyle=orthogonalEdgeStyle;rounded=0;orthogonalLoop=1;jettySize=auto;html=1;entryX=0.5;entryY=0;entryDx=0;entryDy=0;" parent="1" source="T4NdSgvmd6i7ijyYlSUB-2" target="T4NdSgvmd6i7ijyYlSUB-3" edge="1">
          <mxGeometry relative="1" as="geometry">
            <Array as="points">
              <mxPoint x="490" y="380" />
              <mxPoint x="620" y="380" />
            </Array>
          </mxGeometry>
        </mxCell>
        <mxCell id="T4NdSgvmd6i7ijyYlSUB-2" value="ApEn justifier" style="rounded=0;whiteSpace=wrap;html=1;" parent="1" vertex="1">
          <mxGeometry x="280" y="280" width="280" height="60" as="geometry" />
        </mxCell>
        <mxCell id="T4NdSgvmd6i7ijyYlSUB-31" style="edgeStyle=orthogonalEdgeStyle;rounded=0;orthogonalLoop=1;jettySize=auto;html=1;" parent="1" source="T4NdSgvmd6i7ijyYlSUB-3" target="T4NdSgvmd6i7ijyYlSUB-8" edge="1">
          <mxGeometry relative="1" as="geometry" />
        </mxCell>
        <mxCell id="T4NdSgvmd6i7ijyYlSUB-3" value="Low quality data" style="rounded=0;whiteSpace=wrap;html=1;" parent="1" vertex="1">
          <mxGeometry x="560" y="420" width="120" height="60" as="geometry" />
        </mxCell>
        <mxCell id="T4NdSgvmd6i7ijyYlSUB-34" style="edgeStyle=orthogonalEdgeStyle;rounded=0;orthogonalLoop=1;jettySize=auto;html=1;entryX=0.25;entryY=0;entryDx=0;entryDy=0;" parent="1" source="T4NdSgvmd6i7ijyYlSUB-4" target="T4NdSgvmd6i7ijyYlSUB-10" edge="1">
          <mxGeometry relative="1" as="geometry">
            <Array as="points">
              <mxPoint x="220" y="690" />
              <mxPoint x="390" y="690" />
            </Array>
          </mxGeometry>
        </mxCell>
        <mxCell id="T4NdSgvmd6i7ijyYlSUB-4" value="High quality data" style="rounded=0;whiteSpace=wrap;html=1;" parent="1" vertex="1">
          <mxGeometry x="160" y="660" width="120" height="60" as="geometry" />
        </mxCell>
        <mxCell id="T4NdSgvmd6i7ijyYlSUB-26" style="edgeStyle=orthogonalEdgeStyle;rounded=0;orthogonalLoop=1;jettySize=auto;html=1;entryX=0;entryY=0.5;entryDx=0;entryDy=0;" parent="1" source="T4NdSgvmd6i7ijyYlSUB-5" target="T4NdSgvmd6i7ijyYlSUB-6" edge="1">
          <mxGeometry relative="1" as="geometry" />
        </mxCell>
        <mxCell id="T4NdSgvmd6i7ijyYlSUB-5" value="Bandpass filter" style="rounded=0;whiteSpace=wrap;html=1;" parent="1" vertex="1">
          <mxGeometry x="200" y="160" width="120" height="60" as="geometry" />
        </mxCell>
        <mxCell id="T4NdSgvmd6i7ijyYlSUB-27" style="edgeStyle=orthogonalEdgeStyle;rounded=0;orthogonalLoop=1;jettySize=auto;html=1;entryX=0;entryY=0.5;entryDx=0;entryDy=0;" parent="1" source="T4NdSgvmd6i7ijyYlSUB-6" target="T4NdSgvmd6i7ijyYlSUB-7" edge="1">
          <mxGeometry relative="1" as="geometry" />
        </mxCell>
        <mxCell id="T4NdSgvmd6i7ijyYlSUB-6" value="Artifact removal" style="rounded=0;whiteSpace=wrap;html=1;" parent="1" vertex="1">
          <mxGeometry x="360" y="160" width="120" height="60" as="geometry" />
        </mxCell>
        <mxCell id="T4NdSgvmd6i7ijyYlSUB-7" value="Data cropping" style="rounded=0;whiteSpace=wrap;html=1;" parent="1" vertex="1">
          <mxGeometry x="520" y="160" width="120" height="60" as="geometry" />
        </mxCell>
        <mxCell id="T4NdSgvmd6i7ijyYlSUB-32" style="edgeStyle=orthogonalEdgeStyle;rounded=0;orthogonalLoop=1;jettySize=auto;html=1;entryX=0.5;entryY=0;entryDx=0;entryDy=0;" parent="1" source="T4NdSgvmd6i7ijyYlSUB-8" target="T4NdSgvmd6i7ijyYlSUB-9" edge="1">
          <mxGeometry relative="1" as="geometry" />
        </mxCell>
        <mxCell id="T4NdSgvmd6i7ijyYlSUB-8" value="Electrode distance tradeoff" style="rounded=0;whiteSpace=wrap;html=1;" parent="1" vertex="1">
          <mxGeometry x="560" y="540" width="120" height="60" as="geometry" />
        </mxCell>
        <mxCell id="T4NdSgvmd6i7ijyYlSUB-33" style="edgeStyle=orthogonalEdgeStyle;rounded=0;orthogonalLoop=1;jettySize=auto;html=1;entryX=0.75;entryY=0;entryDx=0;entryDy=0;" parent="1" source="T4NdSgvmd6i7ijyYlSUB-9" target="T4NdSgvmd6i7ijyYlSUB-10" edge="1">
          <mxGeometry relative="1" as="geometry" />
        </mxCell>
        <mxCell id="T4NdSgvmd6i7ijyYlSUB-9" value="Refined data" style="rounded=0;whiteSpace=wrap;html=1;" parent="1" vertex="1">
          <mxGeometry x="560" y="660" width="120" height="60" as="geometry" />
        </mxCell>
        <mxCell id="T4NdSgvmd6i7ijyYlSUB-35" style="edgeStyle=orthogonalEdgeStyle;rounded=0;orthogonalLoop=1;jettySize=auto;html=1;exitX=0.25;exitY=1;exitDx=0;exitDy=0;entryX=0.5;entryY=0;entryDx=0;entryDy=0;" parent="1" source="T4NdSgvmd6i7ijyYlSUB-10" target="T4NdSgvmd6i7ijyYlSUB-12" edge="1">
          <mxGeometry relative="1" as="geometry" />
        </mxCell>
        <mxCell id="T4NdSgvmd6i7ijyYlSUB-36" style="edgeStyle=orthogonalEdgeStyle;rounded=0;orthogonalLoop=1;jettySize=auto;html=1;exitX=0.75;exitY=1;exitDx=0;exitDy=0;entryX=0.5;entryY=0;entryDx=0;entryDy=0;" parent="1" source="T4NdSgvmd6i7ijyYlSUB-10" target="T4NdSgvmd6i7ijyYlSUB-11" edge="1">
          <mxGeometry relative="1" as="geometry" />
        </mxCell>
        <mxCell id="T4NdSgvmd6i7ijyYlSUB-10" value="Preprocessed data" style="rounded=0;whiteSpace=wrap;html=1;" parent="1" vertex="1">
          <mxGeometry x="360" y="760" width="120" height="60" as="geometry" />
        </mxCell>
        <mxCell id="T4NdSgvmd6i7ijyYlSUB-38" style="edgeStyle=orthogonalEdgeStyle;rounded=0;orthogonalLoop=1;jettySize=auto;html=1;entryX=0.5;entryY=0;entryDx=0;entryDy=0;" parent="1" source="T4NdSgvmd6i7ijyYlSUB-11" target="T4NdSgvmd6i7ijyYlSUB-13" edge="1">
          <mxGeometry relative="1" as="geometry" />
        </mxCell>
        <mxCell id="T4NdSgvmd6i7ijyYlSUB-11" value="Source data" style="rounded=0;whiteSpace=wrap;html=1;" parent="1" vertex="1">
          <mxGeometry x="560" y="880" width="120" height="60" as="geometry" />
        </mxCell>
        <mxCell id="T4NdSgvmd6i7ijyYlSUB-37" style="edgeStyle=orthogonalEdgeStyle;rounded=0;orthogonalLoop=1;jettySize=auto;html=1;entryX=0.5;entryY=0;entryDx=0;entryDy=0;" parent="1" source="T4NdSgvmd6i7ijyYlSUB-12" target="T4NdSgvmd6i7ijyYlSUB-14" edge="1">
          <mxGeometry relative="1" as="geometry" />
        </mxCell>
        <mxCell id="T4NdSgvmd6i7ijyYlSUB-12" value="Target data" style="rounded=0;whiteSpace=wrap;html=1;" parent="1" vertex="1">
          <mxGeometry x="160" y="880" width="120" height="60" as="geometry" />
        </mxCell>
        <mxCell id="T4NdSgvmd6i7ijyYlSUB-40" style="edgeStyle=orthogonalEdgeStyle;rounded=0;orthogonalLoop=1;jettySize=auto;html=1;entryX=0.5;entryY=0;entryDx=0;entryDy=0;" parent="1" source="T4NdSgvmd6i7ijyYlSUB-13" target="T4NdSgvmd6i7ijyYlSUB-15" edge="1">
          <mxGeometry relative="1" as="geometry" />
        </mxCell>
        <mxCell id="T4NdSgvmd6i7ijyYlSUB-13" value="Temporal-SE" style="rounded=0;whiteSpace=wrap;html=1;" parent="1" vertex="1">
          <mxGeometry x="560" y="1000" width="120" height="60" as="geometry" />
        </mxCell>
        <mxCell id="T4NdSgvmd6i7ijyYlSUB-39" style="edgeStyle=orthogonalEdgeStyle;rounded=0;orthogonalLoop=1;jettySize=auto;html=1;entryX=0.5;entryY=0;entryDx=0;entryDy=0;" parent="1" source="T4NdSgvmd6i7ijyYlSUB-14" target="T4NdSgvmd6i7ijyYlSUB-16" edge="1">
          <mxGeometry relative="1" as="geometry" />
        </mxCell>
        <mxCell id="T4NdSgvmd6i7ijyYlSUB-14" value="Temporal-SE" style="rounded=0;whiteSpace=wrap;html=1;" parent="1" vertex="1">
          <mxGeometry x="160" y="1000" width="120" height="60" as="geometry" />
        </mxCell>
        <mxCell id="T4NdSgvmd6i7ijyYlSUB-42" style="edgeStyle=orthogonalEdgeStyle;rounded=0;orthogonalLoop=1;jettySize=auto;html=1;entryX=0.5;entryY=0;entryDx=0;entryDy=0;" parent="1" source="T4NdSgvmd6i7ijyYlSUB-15" target="T4NdSgvmd6i7ijyYlSUB-17" edge="1">
          <mxGeometry relative="1" as="geometry" />
        </mxCell>
        <mxCell id="T4NdSgvmd6i7ijyYlSUB-15" value="Spatial-SE" style="rounded=0;whiteSpace=wrap;html=1;" parent="1" vertex="1">
          <mxGeometry x="560" y="1120" width="120" height="60" as="geometry" />
        </mxCell>
        <mxCell id="T4NdSgvmd6i7ijyYlSUB-41" style="edgeStyle=orthogonalEdgeStyle;rounded=0;orthogonalLoop=1;jettySize=auto;html=1;entryX=0.5;entryY=0;entryDx=0;entryDy=0;" parent="1" source="T4NdSgvmd6i7ijyYlSUB-16" target="T4NdSgvmd6i7ijyYlSUB-18" edge="1">
          <mxGeometry relative="1" as="geometry" />
        </mxCell>
        <mxCell id="T4NdSgvmd6i7ijyYlSUB-16" value="Spatial-SE" style="rounded=0;whiteSpace=wrap;html=1;" parent="1" vertex="1">
          <mxGeometry x="160" y="1120" width="120" height="60" as="geometry" />
        </mxCell>
        <mxCell id="T4NdSgvmd6i7ijyYlSUB-44" style="edgeStyle=orthogonalEdgeStyle;rounded=0;orthogonalLoop=1;jettySize=auto;html=1;entryX=0.75;entryY=0;entryDx=0;entryDy=0;exitX=0;exitY=0.75;exitDx=0;exitDy=0;" parent="1" source="T4NdSgvmd6i7ijyYlSUB-17" target="T4NdSgvmd6i7ijyYlSUB-19" edge="1">
          <mxGeometry relative="1" as="geometry" />
        </mxCell>
        <mxCell id="T4NdSgvmd6i7ijyYlSUB-17" value="Down sampling-SE" style="rounded=0;whiteSpace=wrap;html=1;" parent="1" vertex="1">
          <mxGeometry x="560" y="1240" width="120" height="60" as="geometry" />
        </mxCell>
        <mxCell id="T4NdSgvmd6i7ijyYlSUB-43" style="edgeStyle=orthogonalEdgeStyle;rounded=0;orthogonalLoop=1;jettySize=auto;html=1;entryX=0.25;entryY=0;entryDx=0;entryDy=0;exitX=1;exitY=0.75;exitDx=0;exitDy=0;" parent="1" source="T4NdSgvmd6i7ijyYlSUB-18" target="T4NdSgvmd6i7ijyYlSUB-19" edge="1">
          <mxGeometry relative="1" as="geometry" />
        </mxCell>
        <mxCell id="T4NdSgvmd6i7ijyYlSUB-18" value="Down sampling-SE" style="rounded=0;whiteSpace=wrap;html=1;" parent="1" vertex="1">
          <mxGeometry x="160" y="1240" width="120" height="60" as="geometry" />
        </mxCell>
        <mxCell id="T4NdSgvmd6i7ijyYlSUB-45" style="edgeStyle=orthogonalEdgeStyle;rounded=0;orthogonalLoop=1;jettySize=auto;html=1;exitX=0.25;exitY=1;exitDx=0;exitDy=0;entryX=0.25;entryY=0;entryDx=0;entryDy=0;" parent="1" source="T4NdSgvmd6i7ijyYlSUB-19" target="T4NdSgvmd6i7ijyYlSUB-20" edge="1">
          <mxGeometry relative="1" as="geometry" />
        </mxCell>
        <mxCell id="T4NdSgvmd6i7ijyYlSUB-46" style="edgeStyle=orthogonalEdgeStyle;rounded=0;orthogonalLoop=1;jettySize=auto;html=1;exitX=0.75;exitY=1;exitDx=0;exitDy=0;entryX=0.75;entryY=0;entryDx=0;entryDy=0;" parent="1" source="T4NdSgvmd6i7ijyYlSUB-19" target="T4NdSgvmd6i7ijyYlSUB-20" edge="1">
          <mxGeometry relative="1" as="geometry" />
        </mxCell>
        <mxCell id="T4NdSgvmd6i7ijyYlSUB-51" style="edgeStyle=orthogonalEdgeStyle;rounded=0;orthogonalLoop=1;jettySize=auto;html=1;entryX=0.25;entryY=0;entryDx=0;entryDy=0;" parent="1" source="T4NdSgvmd6i7ijyYlSUB-19" target="T4NdSgvmd6i7ijyYlSUB-21" edge="1">
          <mxGeometry relative="1" as="geometry" />
        </mxCell>
        <mxCell id="T4NdSgvmd6i7ijyYlSUB-19" value="Electrode domain adaptation" style="rounded=0;whiteSpace=wrap;html=1;" parent="1" vertex="1">
          <mxGeometry x="360" y="1380" width="120" height="60" as="geometry" />
        </mxCell>
        <mxCell id="T4NdSgvmd6i7ijyYlSUB-47" style="edgeStyle=orthogonalEdgeStyle;rounded=0;orthogonalLoop=1;jettySize=auto;html=1;exitX=0.25;exitY=1;exitDx=0;exitDy=0;entryX=1;entryY=0.5;entryDx=0;entryDy=0;" parent="1" source="T4NdSgvmd6i7ijyYlSUB-20" target="T4NdSgvmd6i7ijyYlSUB-23" edge="1">
          <mxGeometry relative="1" as="geometry" />
        </mxCell>
        <mxCell id="T4NdSgvmd6i7ijyYlSUB-48" style="edgeStyle=orthogonalEdgeStyle;rounded=0;orthogonalLoop=1;jettySize=auto;html=1;exitX=0.75;exitY=1;exitDx=0;exitDy=0;entryX=0;entryY=0.5;entryDx=0;entryDy=0;" parent="1" source="T4NdSgvmd6i7ijyYlSUB-20" target="T4NdSgvmd6i7ijyYlSUB-22" edge="1">
          <mxGeometry relative="1" as="geometry" />
        </mxCell>
        <mxCell id="T4NdSgvmd6i7ijyYlSUB-50" style="edgeStyle=orthogonalEdgeStyle;rounded=0;orthogonalLoop=1;jettySize=auto;html=1;entryX=0.75;entryY=0;entryDx=0;entryDy=0;" parent="1" source="T4NdSgvmd6i7ijyYlSUB-20" target="T4NdSgvmd6i7ijyYlSUB-21" edge="1">
          <mxGeometry relative="1" as="geometry" />
        </mxCell>
        <mxCell id="T4NdSgvmd6i7ijyYlSUB-20" value="FC Layer" style="rounded=0;whiteSpace=wrap;html=1;" parent="1" vertex="1">
          <mxGeometry x="360" y="1480" width="120" height="60" as="geometry" />
        </mxCell>
        <mxCell id="T4NdSgvmd6i7ijyYlSUB-55" style="edgeStyle=orthogonalEdgeStyle;rounded=0;orthogonalLoop=1;jettySize=auto;html=1;" parent="1" source="T4NdSgvmd6i7ijyYlSUB-21" target="T4NdSgvmd6i7ijyYlSUB-53" edge="1">
          <mxGeometry relative="1" as="geometry">
            <Array as="points">
              <mxPoint x="220" y="1330" />
              <mxPoint x="365" y="1330" />
            </Array>
          </mxGeometry>
        </mxCell>
        <mxCell id="T4NdSgvmd6i7ijyYlSUB-21" value="Collective loss" style="rounded=0;whiteSpace=wrap;html=1;direction=south;" parent="1" vertex="1">
          <mxGeometry x="190" y="1360" width="60" height="200" as="geometry" />
        </mxCell>
        <mxCell id="T4NdSgvmd6i7ijyYlSUB-22" value="Source label" style="rounded=0;whiteSpace=wrap;html=1;" parent="1" vertex="1">
          <mxGeometry x="560" y="1594" width="120" height="60" as="geometry" />
        </mxCell>
        <mxCell id="T4NdSgvmd6i7ijyYlSUB-49" style="edgeStyle=orthogonalEdgeStyle;rounded=0;orthogonalLoop=1;jettySize=auto;html=1;exitX=0.5;exitY=0;exitDx=0;exitDy=0;entryX=1;entryY=0.5;entryDx=0;entryDy=0;" parent="1" source="T4NdSgvmd6i7ijyYlSUB-23" target="T4NdSgvmd6i7ijyYlSUB-21" edge="1">
          <mxGeometry relative="1" as="geometry" />
        </mxCell>
        <mxCell id="T4NdSgvmd6i7ijyYlSUB-23" value="Predicted label" style="rounded=0;whiteSpace=wrap;html=1;" parent="1" vertex="1">
          <mxGeometry x="160" y="1594" width="120" height="60" as="geometry" />
        </mxCell>
        <mxCell id="T4NdSgvmd6i7ijyYlSUB-53" value="&lt;sub&gt;&lt;span style=&quot;font-size: 12px;&quot;&gt;Data&lt;sub&gt;s&lt;/sub&gt;&lt;/span&gt;&lt;/sub&gt;" style="text;html=1;align=center;verticalAlign=middle;resizable=0;points=[];autosize=1;strokeColor=none;fillColor=none;" parent="1" vertex="1">
          <mxGeometry x="340" y="1310" width="50" height="30" as="geometry" />
        </mxCell>
        <mxCell id="T4NdSgvmd6i7ijyYlSUB-54" value="&lt;sub&gt;&lt;span style=&quot;font-size: 12px;&quot;&gt;Data&lt;sub&gt;t&lt;/sub&gt;&lt;/span&gt;&lt;/sub&gt;" style="text;html=1;align=center;verticalAlign=middle;resizable=0;points=[];autosize=1;strokeColor=none;fillColor=none;" parent="1" vertex="1">
          <mxGeometry x="450" y="1310" width="50" height="30" as="geometry" />
        </mxCell>
        <mxCell id="T4NdSgvmd6i7ijyYlSUB-58" value="" style="endArrow=block;startArrow=block;endFill=1;startFill=1;html=1;rounded=0;entryX=0;entryY=0.25;entryDx=0;entryDy=0;exitX=1;exitY=0.25;exitDx=0;exitDy=0;" parent="1" source="T4NdSgvmd6i7ijyYlSUB-18" target="T4NdSgvmd6i7ijyYlSUB-17" edge="1">
          <mxGeometry width="160" relative="1" as="geometry">
            <mxPoint x="280" y="1262" as="sourcePoint" />
            <mxPoint x="560" y="1262" as="targetPoint" />
          </mxGeometry>
        </mxCell>
        <mxCell id="T4NdSgvmd6i7ijyYlSUB-59" value="" style="endArrow=block;startArrow=block;endFill=1;startFill=1;html=1;rounded=0;exitX=1;exitY=0.5;exitDx=0;exitDy=0;entryX=0;entryY=0.5;entryDx=0;entryDy=0;" parent="1" source="T4NdSgvmd6i7ijyYlSUB-14" target="T4NdSgvmd6i7ijyYlSUB-13" edge="1">
          <mxGeometry width="160" relative="1" as="geometry">
            <mxPoint x="300" y="1040" as="sourcePoint" />
            <mxPoint x="530" y="1060" as="targetPoint" />
          </mxGeometry>
        </mxCell>
        <mxCell id="T4NdSgvmd6i7ijyYlSUB-60" value="" style="endArrow=block;startArrow=block;endFill=1;startFill=1;html=1;rounded=0;entryX=0;entryY=0.5;entryDx=0;entryDy=0;exitX=1;exitY=0.5;exitDx=0;exitDy=0;" parent="1" source="T4NdSgvmd6i7ijyYlSUB-16" target="T4NdSgvmd6i7ijyYlSUB-15" edge="1">
          <mxGeometry width="160" relative="1" as="geometry">
            <mxPoint x="300" y="930" as="sourcePoint" />
            <mxPoint x="580" y="930" as="targetPoint" />
          </mxGeometry>
        </mxCell>
        <mxCell id="T4NdSgvmd6i7ijyYlSUB-62" value="Share" style="text;html=1;align=center;verticalAlign=middle;resizable=0;points=[];autosize=1;strokeColor=none;fillColor=none;" parent="1" vertex="1">
          <mxGeometry x="390" y="1225" width="60" height="30" as="geometry" />
        </mxCell>
        <mxCell id="T4NdSgvmd6i7ijyYlSUB-63" value="Share" style="text;html=1;align=center;verticalAlign=middle;resizable=0;points=[];autosize=1;strokeColor=none;fillColor=none;" parent="1" vertex="1">
          <mxGeometry x="390" y="1000" width="60" height="30" as="geometry" />
        </mxCell>
        <mxCell id="T4NdSgvmd6i7ijyYlSUB-64" value="Share" style="text;html=1;align=center;verticalAlign=middle;resizable=0;points=[];autosize=1;strokeColor=none;fillColor=none;" parent="1" vertex="1">
          <mxGeometry x="390" y="1120" width="60" height="30" as="geometry" />
        </mxCell>
        <mxCell id="T4NdSgvmd6i7ijyYlSUB-67" value="Data preprocessing" style="text;html=1;align=center;verticalAlign=middle;resizable=0;points=[];autosize=1;strokeColor=none;fillColor=none;rotation=90;" parent="1" vertex="1">
          <mxGeometry x="70" y="480" width="130" height="30" as="geometry" />
        </mxCell>
        <mxCell id="T4NdSgvmd6i7ijyYlSUB-70" value="Feature extractor" style="text;html=1;align=center;verticalAlign=middle;resizable=0;points=[];autosize=1;strokeColor=none;fillColor=none;rotation=90;" parent="1" vertex="1">
          <mxGeometry x="80" y="1060" width="110" height="30" as="geometry" />
        </mxCell>
        <mxCell id="vzksnj_4x7iH5aSXOHEv-5" style="edgeStyle=orthogonalEdgeStyle;rounded=0;orthogonalLoop=1;jettySize=auto;html=1;entryX=0.5;entryY=0;entryDx=0;entryDy=0;" parent="1" source="vzksnj_4x7iH5aSXOHEv-4" target="T4NdSgvmd6i7ijyYlSUB-2" edge="1">
          <mxGeometry relative="1" as="geometry" />
        </mxCell>
        <mxCell id="vzksnj_4x7iH5aSXOHEv-4" value="" style="rounded=1;whiteSpace=wrap;html=1;fillColor=none;" parent="1" vertex="1">
          <mxGeometry x="160" y="140" width="520" height="100" as="geometry" />
        </mxCell>
        <mxCell id="vzksnj_4x7iH5aSXOHEv-7" style="edgeStyle=orthogonalEdgeStyle;rounded=0;orthogonalLoop=1;jettySize=auto;html=1;entryX=0;entryY=0.5;entryDx=0;entryDy=0;" parent="1" source="vzksnj_4x7iH5aSXOHEv-6" target="T4NdSgvmd6i7ijyYlSUB-8" edge="1">
          <mxGeometry relative="1" as="geometry" />
        </mxCell>
        <mxCell id="vzksnj_4x7iH5aSXOHEv-6" value="Electrode placement map" style="rounded=0;whiteSpace=wrap;html=1;" parent="1" vertex="1">
          <mxGeometry x="360" y="540" width="120" height="60" as="geometry" />
        </mxCell>
        <mxCell id="vzksnj_4x7iH5aSXOHEv-10" style="edgeStyle=orthogonalEdgeStyle;rounded=0;orthogonalLoop=1;jettySize=auto;html=1;" parent="1" source="vzksnj_4x7iH5aSXOHEv-9" target="T4NdSgvmd6i7ijyYlSUB-19" edge="1">
          <mxGeometry relative="1" as="geometry" />
        </mxCell>
        <mxCell id="vzksnj_4x7iH5aSXOHEv-9" value="Brain atlas" style="rounded=0;whiteSpace=wrap;html=1;" parent="1" vertex="1">
          <mxGeometry x="560" y="1380" width="120" height="60" as="geometry" />
        </mxCell>
        <mxCell id="68v2hLTrzGkSt8X37CVW-5" style="edgeStyle=orthogonalEdgeStyle;rounded=0;orthogonalLoop=1;jettySize=auto;html=1;exitX=1;exitY=0.5;exitDx=0;exitDy=0;entryX=0;entryY=0.5;entryDx=0;entryDy=0;fontSize=10;" parent="1" source="68v2hLTrzGkSt8X37CVW-24" edge="1">
          <mxGeometry relative="1" as="geometry">
            <mxPoint x="1020" y="1366" as="sourcePoint" />
            <mxPoint x="1059.9999999999995" y="1355.9999999999998" as="targetPoint" />
          </mxGeometry>
        </mxCell>
        <mxCell id="68v2hLTrzGkSt8X37CVW-24" value="" style="rounded=1;whiteSpace=wrap;html=1;fillColor=none;container=0;" parent="1" vertex="1">
          <mxGeometry x="810" y="1190" width="220" height="330" as="geometry" />
        </mxCell>
        <mxCell id="68v2hLTrzGkSt8X37CVW-32" value="&lt;div align=&quot;center&quot;&gt;&lt;font style=&quot;font-size: 10px;&quot;&gt;ApEn detector&lt;/font&gt;&lt;/div&gt;" style="text;whiteSpace=wrap;html=1;align=center;container=0;" parent="1" vertex="1">
          <mxGeometry x="880" y="1492.5" width="80" height="27.5" as="geometry" />
        </mxCell>
        <mxCell id="68v2hLTrzGkSt8X37CVW-43" style="edgeStyle=orthogonalEdgeStyle;rounded=0;orthogonalLoop=1;jettySize=auto;html=1;exitX=0;exitY=0.5;exitDx=0;exitDy=0;entryX=0.25;entryY=0;entryDx=0;entryDy=0;" parent="1" source="68v2hLTrzGkSt8X37CVW-45" target="68v2hLTrzGkSt8X37CVW-47" edge="1">
          <mxGeometry relative="1" as="geometry" />
        </mxCell>
        <mxCell id="68v2hLTrzGkSt8X37CVW-44" style="edgeStyle=orthogonalEdgeStyle;rounded=0;orthogonalLoop=1;jettySize=auto;html=1;exitX=1;exitY=0.5;exitDx=0;exitDy=0;entryX=0.75;entryY=0;entryDx=0;entryDy=0;" parent="1" source="68v2hLTrzGkSt8X37CVW-45" target="68v2hLTrzGkSt8X37CVW-53" edge="1">
          <mxGeometry relative="1" as="geometry" />
        </mxCell>
        <mxCell id="68v2hLTrzGkSt8X37CVW-45" value="&lt;div&gt;&lt;font style=&quot;font-size: 10px;&quot;&gt;Time Series Data&lt;/font&gt;&lt;/div&gt;" style="rounded=0;whiteSpace=wrap;html=1;fillColor=none;container=0;" parent="1" vertex="1">
          <mxGeometry x="860" y="1218.5" width="120" height="15" as="geometry" />
        </mxCell>
        <mxCell id="68v2hLTrzGkSt8X37CVW-46" style="edgeStyle=orthogonalEdgeStyle;rounded=0;orthogonalLoop=1;jettySize=auto;html=1;exitX=0.75;exitY=1;exitDx=0;exitDy=0;entryX=0.25;entryY=0;entryDx=0;entryDy=0;" parent="1" source="68v2hLTrzGkSt8X37CVW-47" target="68v2hLTrzGkSt8X37CVW-49" edge="1">
          <mxGeometry relative="1" as="geometry" />
        </mxCell>
        <mxCell id="68v2hLTrzGkSt8X37CVW-47" value="&lt;div&gt;&lt;div&gt;&lt;font style=&quot;font-size: 10px;&quot;&gt;Subsequences&lt;/font&gt;&lt;/div&gt;&lt;div&gt;&lt;font style=&quot;font-size: 10px;&quot;&gt;length m&lt;/font&gt;&lt;/div&gt;&lt;/div&gt;" style="rounded=0;whiteSpace=wrap;html=1;fillColor=none;container=0;" parent="1" vertex="1">
          <mxGeometry x="830" y="1248.5" width="70" height="30" as="geometry" />
        </mxCell>
        <mxCell id="68v2hLTrzGkSt8X37CVW-48" value="" style="edgeStyle=orthogonalEdgeStyle;rounded=0;orthogonalLoop=1;jettySize=auto;html=1;" parent="1" source="68v2hLTrzGkSt8X37CVW-49" target="68v2hLTrzGkSt8X37CVW-51" edge="1">
          <mxGeometry relative="1" as="geometry" />
        </mxCell>
        <mxCell id="68v2hLTrzGkSt8X37CVW-49" value="&lt;div&gt;&lt;div&gt;&lt;div&gt;&lt;font style=&quot;font-size: 10px;&quot;&gt;Distance calculation&lt;/font&gt;&lt;/div&gt;&lt;/div&gt;&lt;/div&gt;" style="rounded=0;whiteSpace=wrap;html=1;fillColor=none;container=0;" parent="1" vertex="1">
          <mxGeometry x="860" y="1298.5" width="120" height="15" as="geometry" />
        </mxCell>
        <mxCell id="68v2hLTrzGkSt8X37CVW-50" value="" style="edgeStyle=orthogonalEdgeStyle;rounded=0;orthogonalLoop=1;jettySize=auto;html=1;" parent="1" source="68v2hLTrzGkSt8X37CVW-51" target="68v2hLTrzGkSt8X37CVW-55" edge="1">
          <mxGeometry relative="1" as="geometry" />
        </mxCell>
        <mxCell id="68v2hLTrzGkSt8X37CVW-51" value="&lt;div&gt;&lt;div&gt;&lt;div&gt;&lt;font style=&quot;font-size: 10px;&quot;&gt;Similarity smoothing&lt;/font&gt;&lt;/div&gt;&lt;/div&gt;&lt;/div&gt;" style="rounded=0;whiteSpace=wrap;html=1;fillColor=none;container=0;" parent="1" vertex="1">
          <mxGeometry x="860" y="1338.5" width="120" height="15" as="geometry" />
        </mxCell>
        <mxCell id="68v2hLTrzGkSt8X37CVW-52" style="edgeStyle=orthogonalEdgeStyle;rounded=0;orthogonalLoop=1;jettySize=auto;html=1;exitX=0.25;exitY=1;exitDx=0;exitDy=0;entryX=0.75;entryY=0;entryDx=0;entryDy=0;" parent="1" source="68v2hLTrzGkSt8X37CVW-53" target="68v2hLTrzGkSt8X37CVW-49" edge="1">
          <mxGeometry relative="1" as="geometry" />
        </mxCell>
        <mxCell id="68v2hLTrzGkSt8X37CVW-53" value="&lt;div&gt;&lt;div&gt;&lt;font style=&quot;font-size: 10px;&quot;&gt;Subsequences&lt;/font&gt;&lt;/div&gt;&lt;div&gt;&lt;font style=&quot;font-size: 10px;&quot;&gt;length m+1&lt;/font&gt;&lt;/div&gt;&lt;/div&gt;" style="rounded=0;whiteSpace=wrap;html=1;fillColor=none;container=0;" parent="1" vertex="1">
          <mxGeometry x="940" y="1248.5" width="70" height="30" as="geometry" />
        </mxCell>
        <mxCell id="68v2hLTrzGkSt8X37CVW-54" value="" style="edgeStyle=orthogonalEdgeStyle;rounded=0;orthogonalLoop=1;jettySize=auto;html=1;" parent="1" source="68v2hLTrzGkSt8X37CVW-55" target="68v2hLTrzGkSt8X37CVW-57" edge="1">
          <mxGeometry relative="1" as="geometry" />
        </mxCell>
        <mxCell id="68v2hLTrzGkSt8X37CVW-55" value="&lt;div&gt;&lt;div&gt;&lt;div&gt;&lt;div&gt;&lt;font style=&quot;font-size: 10px;&quot;&gt;Pattern frequency&lt;/font&gt;&lt;/div&gt;&lt;/div&gt;&lt;/div&gt;&lt;/div&gt;" style="rounded=0;whiteSpace=wrap;html=1;fillColor=none;container=0;" parent="1" vertex="1">
          <mxGeometry x="860" y="1378.5" width="120" height="15" as="geometry" />
        </mxCell>
        <mxCell id="68v2hLTrzGkSt8X37CVW-56" value="" style="edgeStyle=orthogonalEdgeStyle;rounded=0;orthogonalLoop=1;jettySize=auto;html=1;" parent="1" source="68v2hLTrzGkSt8X37CVW-57" target="68v2hLTrzGkSt8X37CVW-58" edge="1">
          <mxGeometry relative="1" as="geometry" />
        </mxCell>
        <mxCell id="68v2hLTrzGkSt8X37CVW-57" value="&lt;div&gt;&lt;div&gt;&lt;div&gt;&lt;div&gt;&lt;font style=&quot;font-size: 10px;&quot;&gt;Logarithmic probability&lt;/font&gt;&lt;/div&gt;&lt;/div&gt;&lt;/div&gt;&lt;/div&gt;" style="rounded=0;whiteSpace=wrap;html=1;fillColor=none;container=0;" parent="1" vertex="1">
          <mxGeometry x="860" y="1418.5" width="120" height="15" as="geometry" />
        </mxCell>
        <mxCell id="68v2hLTrzGkSt8X37CVW-58" value="&lt;div&gt;&lt;font style=&quot;font-size: 10px;&quot;&gt;Approximate Entropy = &lt;span data-immersive-translate-walked=&quot;bc8327e2-fcfe-4aba-acab-a4d93a7c4a7b&quot; class=&quot;text-sm px-1 rounded-sm !font-mono bg-sunset/10 text-rust dark:bg-dawn/10 dark:text-dawn&quot;&gt;phi(m)&lt;/span&gt; - &lt;span data-immersive-translate-walked=&quot;bc8327e2-fcfe-4aba-acab-a4d93a7c4a7b&quot; class=&quot;text-sm px-1 rounded-sm !font-mono bg-sunset/10 text-rust dark:bg-dawn/10 dark:text-dawn&quot;&gt;phi(m+1)&lt;/span&gt;&lt;/font&gt;&lt;/div&gt;" style="rounded=0;whiteSpace=wrap;html=1;fillColor=none;container=0;" parent="1" vertex="1">
          <mxGeometry x="820" y="1458.5" width="200" height="15" as="geometry" />
        </mxCell>
        <mxCell id="68v2hLTrzGkSt8X37CVW-158" value="" style="rounded=1;whiteSpace=wrap;html=1;fillColor=none;container=0;dashed=1;dashPattern=12 12;" parent="1" vertex="1">
          <mxGeometry x="1720" y="240" width="310" height="222" as="geometry" />
        </mxCell>
        <mxCell id="68v2hLTrzGkSt8X37CVW-60" style="rounded=0;orthogonalLoop=1;jettySize=auto;html=1;exitX=0.5;exitY=1;exitDx=0;exitDy=0;fontSize=10;edgeStyle=orthogonalEdgeStyle;" parent="1" source="68v2hLTrzGkSt8X37CVW-110" target="68v2hLTrzGkSt8X37CVW-77" edge="1">
          <mxGeometry relative="1" as="geometry">
            <mxPoint x="1754.0769230769229" y="1207" as="targetPoint" />
          </mxGeometry>
        </mxCell>
        <mxCell id="68v2hLTrzGkSt8X37CVW-61" style="rounded=0;orthogonalLoop=1;jettySize=auto;html=1;exitX=0.5;exitY=1;exitDx=0;exitDy=0;fontSize=10;edgeStyle=orthogonalEdgeStyle;" parent="1" source="68v2hLTrzGkSt8X37CVW-111" target="68v2hLTrzGkSt8X37CVW-77" edge="1">
          <mxGeometry relative="1" as="geometry">
            <mxPoint x="1754.0769230769229" y="1207" as="targetPoint" />
          </mxGeometry>
        </mxCell>
        <mxCell id="68v2hLTrzGkSt8X37CVW-62" style="rounded=0;orthogonalLoop=1;jettySize=auto;html=1;exitX=0.5;exitY=1;exitDx=0;exitDy=0;fontSize=10;edgeStyle=orthogonalEdgeStyle;" parent="1" source="68v2hLTrzGkSt8X37CVW-112" target="68v2hLTrzGkSt8X37CVW-77" edge="1">
          <mxGeometry relative="1" as="geometry">
            <mxPoint x="1754.0769230769229" y="1207" as="targetPoint" />
          </mxGeometry>
        </mxCell>
        <mxCell id="68v2hLTrzGkSt8X37CVW-66" style="edgeStyle=orthogonalEdgeStyle;rounded=0;orthogonalLoop=1;jettySize=auto;html=1;fontSize=10;" parent="1" source="68v2hLTrzGkSt8X37CVW-68" target="68v2hLTrzGkSt8X37CVW-71" edge="1">
          <mxGeometry relative="1" as="geometry" />
        </mxCell>
        <mxCell id="68v2hLTrzGkSt8X37CVW-67" style="edgeStyle=orthogonalEdgeStyle;rounded=0;orthogonalLoop=1;jettySize=auto;html=1;" parent="1" source="68v2hLTrzGkSt8X37CVW-77" target="68v2hLTrzGkSt8X37CVW-68" edge="1">
          <mxGeometry relative="1" as="geometry" />
        </mxCell>
        <mxCell id="68v2hLTrzGkSt8X37CVW-68" value="&lt;font&gt;Classifier&lt;/font&gt;" style="rounded=0;whiteSpace=wrap;html=1;fontSize=10;container=0;" parent="1" vertex="1">
          <mxGeometry x="1730" y="1265" width="60" height="60" as="geometry" />
        </mxCell>
        <mxCell id="68v2hLTrzGkSt8X37CVW-71" value="Predicted&lt;div&gt;Label&lt;/div&gt;" style="rounded=0;whiteSpace=wrap;html=1;fontSize=10;container=0;" parent="1" vertex="1">
          <mxGeometry x="1880" y="1265" width="60" height="60" as="geometry" />
        </mxCell>
        <mxCell id="68v2hLTrzGkSt8X37CVW-77" value="FC Layer" style="rounded=0;whiteSpace=wrap;html=1;fontSize=10;container=0;" parent="1" vertex="1">
          <mxGeometry x="1600" y="1200" width="320" height="30" as="geometry" />
        </mxCell>
        <mxCell id="68v2hLTrzGkSt8X37CVW-38" style="rounded=0;orthogonalLoop=1;jettySize=auto;html=1;exitX=0.5;exitY=1;exitDx=0;exitDy=0;entryX=0.5;entryY=0;entryDx=0;entryDy=0;fontSize=10;" parent="1" source="68v2hLTrzGkSt8X37CVW-9" target="68v2hLTrzGkSt8X37CVW-88" edge="1">
          <mxGeometry relative="1" as="geometry">
            <mxPoint x="1754" y="767" as="sourcePoint" />
          </mxGeometry>
        </mxCell>
        <mxCell id="68v2hLTrzGkSt8X37CVW-37" style="rounded=0;orthogonalLoop=1;jettySize=auto;html=1;exitX=0.5;exitY=1;exitDx=0;exitDy=0;entryX=0.5;entryY=0;entryDx=0;entryDy=0;fontSize=10;" parent="1" source="68v2hLTrzGkSt8X37CVW-9" target="68v2hLTrzGkSt8X37CVW-94" edge="1">
          <mxGeometry relative="1" as="geometry">
            <mxPoint x="1754" y="767" as="sourcePoint" />
          </mxGeometry>
        </mxCell>
        <mxCell id="68v2hLTrzGkSt8X37CVW-35" style="rounded=0;orthogonalLoop=1;jettySize=auto;html=1;exitX=0.5;exitY=1;exitDx=0;exitDy=0;entryX=0.5;entryY=0;entryDx=0;entryDy=0;fontSize=10;" parent="1" source="68v2hLTrzGkSt8X37CVW-9" target="68v2hLTrzGkSt8X37CVW-95" edge="1">
          <mxGeometry relative="1" as="geometry">
            <mxPoint x="1754" y="767" as="sourcePoint" />
          </mxGeometry>
        </mxCell>
        <mxCell id="68v2hLTrzGkSt8X37CVW-36" style="rounded=0;orthogonalLoop=1;jettySize=auto;html=1;exitX=0.48;exitY=1.002;exitDx=0;exitDy=0;entryX=0.523;entryY=-0.011;entryDx=0;entryDy=0;entryPerimeter=0;fontSize=10;exitPerimeter=0;" parent="1" source="68v2hLTrzGkSt8X37CVW-9" target="68v2hLTrzGkSt8X37CVW-127" edge="1">
          <mxGeometry relative="1" as="geometry">
            <mxPoint x="1754" y="767" as="sourcePoint" />
          </mxGeometry>
        </mxCell>
        <mxCell id="68v2hLTrzGkSt8X37CVW-7" value="High quality data" style="rounded=0;whiteSpace=wrap;html=1;fontSize=10;container=0;fillColor=none;aspect=fixed;" parent="1" vertex="1">
          <mxGeometry x="1450" y="650" width="60" height="60" as="geometry" />
        </mxCell>
        <mxCell id="68v2hLTrzGkSt8X37CVW-9" value="Augmented data" style="rounded=0;whiteSpace=wrap;html=1;fontSize=10;container=0;fillColor=none;" parent="1" vertex="1">
          <mxGeometry x="1725" y="650" width="65" height="60" as="geometry" />
        </mxCell>
        <mxCell id="68v2hLTrzGkSt8X37CVW-17" style="edgeStyle=orthogonalEdgeStyle;rounded=0;orthogonalLoop=1;jettySize=auto;html=1;exitX=0.75;exitY=1;exitDx=0;exitDy=0;" parent="1" source="68v2hLTrzGkSt8X37CVW-18" target="68v2hLTrzGkSt8X37CVW-26" edge="1">
          <mxGeometry relative="1" as="geometry" />
        </mxCell>
        <mxCell id="68v2hLTrzGkSt8X37CVW-25" value="&lt;div&gt;Low quality data&lt;/div&gt;&lt;div&gt;(small-sample)&lt;/div&gt;" style="rounded=0;whiteSpace=wrap;html=1;fontSize=10;container=0;fillColor=none;aspect=fixed;" parent="1" vertex="1">
          <mxGeometry x="2020" y="650" width="60" height="60" as="geometry" />
        </mxCell>
        <mxCell id="68v2hLTrzGkSt8X37CVW-26" value="Electrode distance weighter" style="rounded=0;whiteSpace=wrap;html=1;fontSize=10;container=0;fillColor=none;" parent="1" vertex="1">
          <mxGeometry x="1867" y="650" width="60" height="60" as="geometry" />
        </mxCell>
        <mxCell id="68v2hLTrzGkSt8X37CVW-29" style="edgeStyle=orthogonalEdgeStyle;rounded=0;orthogonalLoop=1;jettySize=auto;html=1;fontSize=10;entryX=1;entryY=0.5;entryDx=0;entryDy=0;" parent="1" source="68v2hLTrzGkSt8X37CVW-25" target="68v2hLTrzGkSt8X37CVW-26" edge="1">
          <mxGeometry relative="1" as="geometry" />
        </mxCell>
        <mxCell id="68v2hLTrzGkSt8X37CVW-30" style="edgeStyle=orthogonalEdgeStyle;rounded=0;orthogonalLoop=1;jettySize=auto;html=1;fontSize=10;entryX=1;entryY=0.5;entryDx=0;entryDy=0;" parent="1" source="68v2hLTrzGkSt8X37CVW-26" target="68v2hLTrzGkSt8X37CVW-9" edge="1">
          <mxGeometry relative="1" as="geometry" />
        </mxCell>
        <mxCell id="DW2b4gs_Y9G-pgy9xu3x-36" style="edgeStyle=orthogonalEdgeStyle;rounded=0;orthogonalLoop=1;jettySize=auto;html=1;entryX=0;entryY=0.5;entryDx=0;entryDy=0;" edge="1" parent="1" source="68v2hLTrzGkSt8X37CVW-33" target="DW2b4gs_Y9G-pgy9xu3x-32">
          <mxGeometry relative="1" as="geometry" />
        </mxCell>
        <mxCell id="68v2hLTrzGkSt8X37CVW-33" value="Raw data" style="rounded=0;whiteSpace=wrap;html=1;fontSize=10;container=0;fillColor=none;" parent="1" vertex="1">
          <mxGeometry x="1449" y="258" width="60" height="60" as="geometry" />
        </mxCell>
        <mxCell id="68v2hLTrzGkSt8X37CVW-59" value="Data preprocessing" style="text;html=1;align=center;verticalAlign=middle;resizable=0;points=[];autosize=1;strokeColor=none;fillColor=none;rotation=90;fontSize=10;container=0;" parent="1" vertex="1">
          <mxGeometry x="2030" y="450" width="110" height="30" as="geometry" />
        </mxCell>
        <mxCell id="68v2hLTrzGkSt8X37CVW-153" value="&lt;font style=&quot;font-size: 10px;&quot;&gt;ApEn calculator&lt;/font&gt;" style="rounded=0;whiteSpace=wrap;html=1;fillColor=none;container=0;" parent="1" vertex="1">
          <mxGeometry x="1735" y="273" width="120" height="30" as="geometry" />
        </mxCell>
        <mxCell id="68v2hLTrzGkSt8X37CVW-155" value="" style="rounded=0;orthogonalLoop=1;jettySize=auto;html=1;edgeStyle=orthogonalEdgeStyle;entryX=0;entryY=0.5;entryDx=0;entryDy=0;" parent="1" source="68v2hLTrzGkSt8X37CVW-7" target="68v2hLTrzGkSt8X37CVW-9" edge="1">
          <mxGeometry relative="1" as="geometry">
            <mxPoint x="1920" y="582" as="sourcePoint" />
            <mxPoint x="2850" y="797" as="targetPoint" />
          </mxGeometry>
        </mxCell>
        <mxCell id="68v2hLTrzGkSt8X37CVW-160" value="" style="edgeStyle=orthogonalEdgeStyle;rounded=0;orthogonalLoop=1;jettySize=auto;html=1;entryX=1;entryY=0;entryDx=0;entryDy=0;exitX=1;exitY=0.5;exitDx=0;exitDy=0;" parent="1" source="68v2hLTrzGkSt8X37CVW-153" target="DW2b4gs_Y9G-pgy9xu3x-23" edge="1">
          <mxGeometry relative="1" as="geometry">
            <mxPoint x="1913" y="372.25" as="sourcePoint" />
            <mxPoint x="1841" y="262.25" as="targetPoint" />
          </mxGeometry>
        </mxCell>
        <mxCell id="68v2hLTrzGkSt8X37CVW-242" value="&lt;div align=&quot;center&quot;&gt;&lt;font style=&quot;font-size: 10px;&quot;&gt;ApEn detector&lt;/font&gt;&lt;/div&gt;" style="text;whiteSpace=wrap;html=1;align=center;container=0;rotation=90;" parent="1" vertex="1">
          <mxGeometry x="1976.16" y="340" width="80" height="27.5" as="geometry" />
        </mxCell>
        <mxCell id="68v2hLTrzGkSt8X37CVW-18" value="" style="rounded=1;whiteSpace=wrap;html=1;fillColor=none;fontSize=10;container=0;" parent="1" vertex="1">
          <mxGeometry x="1500" y="487" width="530" height="120" as="geometry" />
        </mxCell>
        <mxCell id="68v2hLTrzGkSt8X37CVW-11" style="edgeStyle=orthogonalEdgeStyle;rounded=0;orthogonalLoop=1;jettySize=auto;html=1;fontSize=10;" parent="1" source="68v2hLTrzGkSt8X37CVW-12" target="68v2hLTrzGkSt8X37CVW-20" edge="1">
          <mxGeometry relative="1" as="geometry" />
        </mxCell>
        <mxCell id="68v2hLTrzGkSt8X37CVW-12" value="Electrode placement map" style="rounded=0;whiteSpace=wrap;html=1;fontSize=10;container=0;fillColor=none;" parent="1" vertex="1">
          <mxGeometry x="1520" y="519" width="60" height="60" as="geometry" />
        </mxCell>
        <mxCell id="68v2hLTrzGkSt8X37CVW-19" value="" style="edgeStyle=orthogonalEdgeStyle;rounded=0;orthogonalLoop=1;jettySize=auto;html=1;fontSize=10;" parent="1" source="68v2hLTrzGkSt8X37CVW-20" target="68v2hLTrzGkSt8X37CVW-22" edge="1">
          <mxGeometry relative="1" as="geometry" />
        </mxCell>
        <mxCell id="68v2hLTrzGkSt8X37CVW-20" value="Physiological and anatomical basis" style="whiteSpace=wrap;html=1;fillColor=none;strokeWidth=1;fontSize=10;container=0;" parent="1" vertex="1">
          <mxGeometry x="1618.89" y="519" width="120" height="60" as="geometry" />
        </mxCell>
        <mxCell id="68v2hLTrzGkSt8X37CVW-21" value="" style="edgeStyle=orthogonalEdgeStyle;rounded=0;orthogonalLoop=1;jettySize=auto;html=1;fontSize=10;" parent="1" source="68v2hLTrzGkSt8X37CVW-22" target="68v2hLTrzGkSt8X37CVW-23" edge="1">
          <mxGeometry relative="1" as="geometry" />
        </mxCell>
        <mxCell id="68v2hLTrzGkSt8X37CVW-22" value="Relationship between distance and weight" style="whiteSpace=wrap;html=1;fillColor=none;strokeWidth=1;fontSize=10;container=0;" parent="1" vertex="1">
          <mxGeometry x="1785" y="519" width="120" height="60" as="geometry" />
        </mxCell>
        <mxCell id="68v2hLTrzGkSt8X37CVW-23" value="Size of weight" style="whiteSpace=wrap;html=1;fillColor=none;strokeWidth=1;fontSize=10;container=0;" parent="1" vertex="1">
          <mxGeometry x="1950" y="519" width="60" height="60" as="geometry" />
        </mxCell>
        <mxCell id="68v2hLTrzGkSt8X37CVW-14" value="&lt;div&gt;Data augmentation based on&lt;/div&gt;&lt;div&gt;other electrodes&#39; data&lt;/div&gt;" style="text;html=1;align=center;verticalAlign=middle;resizable=0;points=[];autosize=1;strokeColor=none;fillColor=none;rotation=0;fontSize=10;container=0;" parent="1" vertex="1">
          <mxGeometry x="1678" y="572" width="150" height="40" as="geometry" />
        </mxCell>
        <mxCell id="68v2hLTrzGkSt8X37CVW-82" value="" style="rounded=1;whiteSpace=wrap;html=1;fillColor=none;dashed=1;dashPattern=12 12;container=0;" parent="1" vertex="1">
          <mxGeometry x="1464.99" y="917" width="580" height="100" as="geometry" />
        </mxCell>
        <mxCell id="68v2hLTrzGkSt8X37CVW-83" value="" style="rounded=1;whiteSpace=wrap;html=1;fillColor=none;dashed=1;dashPattern=12 12;container=0;" parent="1" vertex="1">
          <mxGeometry x="1463.89" y="807.91" width="580" height="100" as="geometry" />
        </mxCell>
        <mxCell id="68v2hLTrzGkSt8X37CVW-84" value="" style="rounded=1;whiteSpace=wrap;html=1;fillColor=none;dashed=1;dashPattern=12 12;container=0;" parent="1" vertex="1">
          <mxGeometry x="1464.99" y="1026.09" width="580" height="150" as="geometry" />
        </mxCell>
        <mxCell id="68v2hLTrzGkSt8X37CVW-86" style="edgeStyle=orthogonalEdgeStyle;rounded=0;orthogonalLoop=1;jettySize=auto;html=1;entryX=0.5;entryY=0;entryDx=0;entryDy=0;exitX=0.5;exitY=1;exitDx=0;exitDy=0;fontSize=10;" parent="1" source="68v2hLTrzGkSt8X37CVW-95" target="68v2hLTrzGkSt8X37CVW-99" edge="1">
          <mxGeometry relative="1" as="geometry">
            <mxPoint x="1948.6737588652484" y="877.9090909090909" as="sourcePoint" />
            <mxPoint x="1948.6737588652484" y="932.4545454545455" as="targetPoint" />
          </mxGeometry>
        </mxCell>
        <mxCell id="68v2hLTrzGkSt8X37CVW-87" style="edgeStyle=orthogonalEdgeStyle;rounded=0;orthogonalLoop=1;jettySize=auto;html=1;entryX=0.5;entryY=0;entryDx=0;entryDy=0;fontSize=10;" parent="1" source="68v2hLTrzGkSt8X37CVW-88" target="68v2hLTrzGkSt8X37CVW-96" edge="1">
          <mxGeometry relative="1" as="geometry">
            <mxPoint x="1508.9574468085107" y="932.4545454545455" as="targetPoint" />
          </mxGeometry>
        </mxCell>
        <mxCell id="68v2hLTrzGkSt8X37CVW-88" value="Kernel" style="rounded=0;whiteSpace=wrap;html=1;fontSize=10;container=0;" parent="1" vertex="1">
          <mxGeometry x="1486.9716312056737" y="823.3636363636364" width="65.95744680851065" height="27.27272727272727" as="geometry" />
        </mxCell>
        <mxCell id="68v2hLTrzGkSt8X37CVW-89" style="edgeStyle=orthogonalEdgeStyle;rounded=0;orthogonalLoop=1;jettySize=auto;html=1;entryX=0.5;entryY=0;entryDx=0;entryDy=0;exitX=0.5;exitY=1;exitDx=0;exitDy=0;fontSize=10;" parent="1" source="68v2hLTrzGkSt8X37CVW-99" target="68v2hLTrzGkSt8X37CVW-109" edge="1">
          <mxGeometry relative="1" as="geometry">
            <mxPoint x="1948.6737588652484" y="987" as="sourcePoint" />
            <mxPoint x="1948.6737588652484" y="1041.5454545454545" as="targetPoint" />
          </mxGeometry>
        </mxCell>
        <mxCell id="68v2hLTrzGkSt8X37CVW-90" style="edgeStyle=orthogonalEdgeStyle;rounded=0;orthogonalLoop=1;jettySize=auto;html=1;entryX=0.5;entryY=0;entryDx=0;entryDy=0;exitX=0.5;exitY=1;exitDx=0;exitDy=0;fontSize=10;" parent="1" source="68v2hLTrzGkSt8X37CVW-96" target="68v2hLTrzGkSt8X37CVW-101" edge="1">
          <mxGeometry relative="1" as="geometry">
            <mxPoint x="1508.9574468085107" y="987" as="sourcePoint" />
            <mxPoint x="1508.9574468085107" y="1041.5454545454545" as="targetPoint" />
          </mxGeometry>
        </mxCell>
        <mxCell id="68v2hLTrzGkSt8X37CVW-91" style="edgeStyle=orthogonalEdgeStyle;rounded=0;orthogonalLoop=1;jettySize=auto;html=1;entryX=0.5;entryY=0;entryDx=0;entryDy=0;exitX=0.5;exitY=1;exitDx=0;exitDy=0;fontSize=10;" parent="1" source="68v2hLTrzGkSt8X37CVW-101" target="68v2hLTrzGkSt8X37CVW-110" edge="1">
          <mxGeometry relative="1" as="geometry">
            <mxPoint x="1508.9574468085107" y="1096.090909090909" as="sourcePoint" />
            <mxPoint x="1508.9574468085107" y="1150.6363636363635" as="targetPoint" />
          </mxGeometry>
        </mxCell>
        <mxCell id="68v2hLTrzGkSt8X37CVW-92" value="Feature extractor" style="text;html=1;align=center;verticalAlign=middle;resizable=0;points=[];autosize=1;strokeColor=none;fillColor=none;rotation=90;fontSize=10;container=0;" parent="1" vertex="1">
          <mxGeometry x="2019.9960992907802" y="974.2736363636363" width="100" height="30" as="geometry" />
        </mxCell>
        <mxCell id="68v2hLTrzGkSt8X37CVW-93" style="edgeStyle=orthogonalEdgeStyle;rounded=0;orthogonalLoop=1;jettySize=auto;html=1;entryX=0.5;entryY=0;entryDx=0;entryDy=0;fontSize=10;" parent="1" source="68v2hLTrzGkSt8X37CVW-94" target="68v2hLTrzGkSt8X37CVW-98" edge="1">
          <mxGeometry relative="1" as="geometry" />
        </mxCell>
        <mxCell id="68v2hLTrzGkSt8X37CVW-94" value="Kernel" style="rounded=0;whiteSpace=wrap;html=1;fontSize=10;container=0;" parent="1" vertex="1">
          <mxGeometry x="1618.886524822695" y="823.3636363636364" width="65.95744680851065" height="27.27272727272727" as="geometry" />
        </mxCell>
        <mxCell id="68v2hLTrzGkSt8X37CVW-95" value="Kernel" style="rounded=0;whiteSpace=wrap;html=1;fontSize=10;container=0;" parent="1" vertex="1">
          <mxGeometry x="1904.7021276595747" y="823.3636363636364" width="65.95744680851065" height="27.27272727272727" as="geometry" />
        </mxCell>
        <mxCell id="68v2hLTrzGkSt8X37CVW-96" value="Kernel" style="rounded=0;whiteSpace=wrap;html=1;fontSize=10;container=0;" parent="1" vertex="1">
          <mxGeometry x="1486.9716312056737" y="932.4545454545455" width="65.95744680851065" height="27.27272727272727" as="geometry" />
        </mxCell>
        <mxCell id="68v2hLTrzGkSt8X37CVW-97" style="edgeStyle=orthogonalEdgeStyle;rounded=0;orthogonalLoop=1;jettySize=auto;html=1;entryX=0.5;entryY=0;entryDx=0;entryDy=0;fontSize=10;" parent="1" source="68v2hLTrzGkSt8X37CVW-98" target="68v2hLTrzGkSt8X37CVW-105" edge="1">
          <mxGeometry relative="1" as="geometry" />
        </mxCell>
        <mxCell id="68v2hLTrzGkSt8X37CVW-98" value="Kernel" style="rounded=0;whiteSpace=wrap;html=1;fontSize=10;container=0;" parent="1" vertex="1">
          <mxGeometry x="1618.886524822695" y="932.4545454545455" width="65.95744680851065" height="27.27272727272727" as="geometry" />
        </mxCell>
        <mxCell id="68v2hLTrzGkSt8X37CVW-99" value="Kernel" style="rounded=0;whiteSpace=wrap;html=1;fontSize=10;container=0;" parent="1" vertex="1">
          <mxGeometry x="1904.7021276595747" y="932.4545454545455" width="65.95744680851065" height="27.27272727272727" as="geometry" />
        </mxCell>
        <mxCell id="68v2hLTrzGkSt8X37CVW-100" style="rounded=0;orthogonalLoop=1;jettySize=auto;html=1;exitX=0.5;exitY=1;exitDx=0;exitDy=0;entryX=0.5;entryY=0;entryDx=0;entryDy=0;fontSize=10;" parent="1" source="68v2hLTrzGkSt8X37CVW-101" target="68v2hLTrzGkSt8X37CVW-112" edge="1">
          <mxGeometry relative="1" as="geometry" />
        </mxCell>
        <mxCell id="68v2hLTrzGkSt8X37CVW-101" value="Kernel" style="rounded=0;whiteSpace=wrap;html=1;fontSize=10;container=0;" parent="1" vertex="1">
          <mxGeometry x="1486.9716312056737" y="1041.5454545454545" width="65.95744680851065" height="27.27272727272727" as="geometry" />
        </mxCell>
        <mxCell id="68v2hLTrzGkSt8X37CVW-102" value="" style="edgeStyle=orthogonalEdgeStyle;rounded=0;orthogonalLoop=1;jettySize=auto;html=1;fontSize=10;" parent="1" source="68v2hLTrzGkSt8X37CVW-105" target="68v2hLTrzGkSt8X37CVW-111" edge="1">
          <mxGeometry relative="1" as="geometry" />
        </mxCell>
        <mxCell id="68v2hLTrzGkSt8X37CVW-103" style="rounded=0;orthogonalLoop=1;jettySize=auto;html=1;exitX=0.5;exitY=1;exitDx=0;exitDy=0;entryX=0.5;entryY=0;entryDx=0;entryDy=0;fontSize=10;" parent="1" source="68v2hLTrzGkSt8X37CVW-105" target="68v2hLTrzGkSt8X37CVW-112" edge="1">
          <mxGeometry relative="1" as="geometry" />
        </mxCell>
        <mxCell id="68v2hLTrzGkSt8X37CVW-104" style="rounded=0;orthogonalLoop=1;jettySize=auto;html=1;exitX=0.5;exitY=1;exitDx=0;exitDy=0;entryX=0.5;entryY=0;entryDx=0;entryDy=0;fontSize=10;" parent="1" source="68v2hLTrzGkSt8X37CVW-105" target="68v2hLTrzGkSt8X37CVW-110" edge="1">
          <mxGeometry relative="1" as="geometry" />
        </mxCell>
        <mxCell id="68v2hLTrzGkSt8X37CVW-105" value="Kernel" style="rounded=0;whiteSpace=wrap;html=1;fontSize=10;container=0;" parent="1" vertex="1">
          <mxGeometry x="1618.886524822695" y="1041.5454545454545" width="65.95744680851065" height="27.27272727272727" as="geometry" />
        </mxCell>
        <mxCell id="68v2hLTrzGkSt8X37CVW-106" value="" style="edgeStyle=orthogonalEdgeStyle;rounded=0;orthogonalLoop=1;jettySize=auto;html=1;fontSize=10;" parent="1" source="68v2hLTrzGkSt8X37CVW-109" target="68v2hLTrzGkSt8X37CVW-112" edge="1">
          <mxGeometry relative="1" as="geometry" />
        </mxCell>
        <mxCell id="68v2hLTrzGkSt8X37CVW-107" style="rounded=0;orthogonalLoop=1;jettySize=auto;html=1;exitX=0.5;exitY=1;exitDx=0;exitDy=0;entryX=0.5;entryY=0;entryDx=0;entryDy=0;fontSize=10;" parent="1" source="68v2hLTrzGkSt8X37CVW-109" target="68v2hLTrzGkSt8X37CVW-111" edge="1">
          <mxGeometry relative="1" as="geometry" />
        </mxCell>
        <mxCell id="68v2hLTrzGkSt8X37CVW-108" style="rounded=0;orthogonalLoop=1;jettySize=auto;html=1;exitX=0.5;exitY=1;exitDx=0;exitDy=0;entryX=0.5;entryY=0;entryDx=0;entryDy=0;fontSize=10;" parent="1" source="68v2hLTrzGkSt8X37CVW-109" target="68v2hLTrzGkSt8X37CVW-110" edge="1">
          <mxGeometry relative="1" as="geometry" />
        </mxCell>
        <mxCell id="68v2hLTrzGkSt8X37CVW-109" value="Kernel" style="rounded=0;whiteSpace=wrap;html=1;fontSize=10;container=0;" parent="1" vertex="1">
          <mxGeometry x="1904.7021276595747" y="1041.5454545454545" width="65.95744680851065" height="27.27272727272727" as="geometry" />
        </mxCell>
        <mxCell id="68v2hLTrzGkSt8X37CVW-110" value="Kernel" style="rounded=0;whiteSpace=wrap;html=1;fontSize=10;container=0;" parent="1" vertex="1">
          <mxGeometry x="1486.9716312056737" y="1114.2727272727273" width="65.95744680851065" height="27.27272727272727" as="geometry" />
        </mxCell>
        <mxCell id="68v2hLTrzGkSt8X37CVW-111" value="Kernel" style="rounded=0;whiteSpace=wrap;html=1;fontSize=10;container=0;" parent="1" vertex="1">
          <mxGeometry x="1618.886524822695" y="1114.2727272727273" width="65.95744680851065" height="27.27272727272727" as="geometry" />
        </mxCell>
        <mxCell id="68v2hLTrzGkSt8X37CVW-112" value="Kernel" style="rounded=0;whiteSpace=wrap;html=1;fontSize=10;container=0;" parent="1" vertex="1">
          <mxGeometry x="1904.7021276595747" y="1114.2727272727273" width="65.95744680851065" height="27.27272727272727" as="geometry" />
        </mxCell>
        <mxCell id="68v2hLTrzGkSt8X37CVW-113" value="" style="endArrow=classic;html=1;rounded=0;exitX=0.5;exitY=1;exitDx=0;exitDy=0;entryX=0.5;entryY=0;entryDx=0;entryDy=0;fontSize=10;" parent="1" source="68v2hLTrzGkSt8X37CVW-101" target="68v2hLTrzGkSt8X37CVW-111" edge="1">
          <mxGeometry width="50" height="50" relative="1" as="geometry">
            <mxPoint x="1585.9078014184397" y="1087" as="sourcePoint" />
            <mxPoint x="1640.872340425532" y="1041.5454545454545" as="targetPoint" />
          </mxGeometry>
        </mxCell>
        <mxCell id="68v2hLTrzGkSt8X37CVW-114" value="Output" style="text;html=1;align=center;verticalAlign=middle;resizable=0;points=[];autosize=1;strokeColor=none;fillColor=none;rotation=90;fontSize=10;container=0;" parent="1" vertex="1">
          <mxGeometry x="1475.9787234042553" y="865.1818181818182" width="50" height="30" as="geometry" />
        </mxCell>
        <mxCell id="68v2hLTrzGkSt8X37CVW-115" value="Output" style="text;html=1;align=center;verticalAlign=middle;resizable=0;points=[];autosize=1;strokeColor=none;fillColor=none;rotation=90;fontSize=10;container=0;" parent="1" vertex="1">
          <mxGeometry x="1607.8936170212767" y="865.1818181818182" width="50" height="30" as="geometry" />
        </mxCell>
        <mxCell id="68v2hLTrzGkSt8X37CVW-116" value="Output" style="text;html=1;align=center;verticalAlign=middle;resizable=0;points=[];autosize=1;strokeColor=none;fillColor=none;rotation=90;fontSize=10;container=0;" parent="1" vertex="1">
          <mxGeometry x="1893.709219858156" y="865.1818181818182" width="50" height="30" as="geometry" />
        </mxCell>
        <mxCell id="68v2hLTrzGkSt8X37CVW-117" value="Output" style="text;html=1;align=center;verticalAlign=middle;resizable=0;points=[];autosize=1;strokeColor=none;fillColor=none;rotation=90;fontSize=10;container=0;" parent="1" vertex="1">
          <mxGeometry x="1475.9787234042553" y="974.2727272727273" width="50" height="30" as="geometry" />
        </mxCell>
        <mxCell id="68v2hLTrzGkSt8X37CVW-118" value="Output" style="text;html=1;align=center;verticalAlign=middle;resizable=0;points=[];autosize=1;strokeColor=none;fillColor=none;rotation=90;fontSize=10;container=0;" parent="1" vertex="1">
          <mxGeometry x="1607.8936170212767" y="974.2727272727273" width="50" height="30" as="geometry" />
        </mxCell>
        <mxCell id="68v2hLTrzGkSt8X37CVW-119" value="Output" style="text;html=1;align=center;verticalAlign=middle;resizable=0;points=[];autosize=1;strokeColor=none;fillColor=none;rotation=90;fontSize=10;container=0;" parent="1" vertex="1">
          <mxGeometry x="1893.709219858156" y="974.2727272727273" width="50" height="30" as="geometry" />
        </mxCell>
        <mxCell id="68v2hLTrzGkSt8X37CVW-120" value="Output" style="text;html=1;align=center;verticalAlign=middle;resizable=0;points=[];autosize=1;strokeColor=none;fillColor=none;rotation=90;fontSize=10;container=0;" parent="1" vertex="1">
          <mxGeometry x="1503.4609929078015" y="1141.5454545454545" width="50" height="30" as="geometry" />
        </mxCell>
        <mxCell id="68v2hLTrzGkSt8X37CVW-121" value="Output" style="text;html=1;align=center;verticalAlign=middle;resizable=0;points=[];autosize=1;strokeColor=none;fillColor=none;rotation=90;fontSize=10;container=0;" parent="1" vertex="1">
          <mxGeometry x="1635.3758865248228" y="1141.5454545454545" width="50" height="30" as="geometry" />
        </mxCell>
        <mxCell id="68v2hLTrzGkSt8X37CVW-122" value="Output" style="text;html=1;align=center;verticalAlign=middle;resizable=0;points=[];autosize=1;strokeColor=none;fillColor=none;rotation=90;fontSize=10;container=0;" parent="1" vertex="1">
          <mxGeometry x="1921.1914893617022" y="1141.5454545454545" width="50" height="30" as="geometry" />
        </mxCell>
        <mxCell id="68v2hLTrzGkSt8X37CVW-123" value="Conv2D" style="text;html=1;align=center;verticalAlign=middle;resizable=0;points=[];autosize=1;strokeColor=none;fillColor=none;rotation=90;fontSize=10;container=0;" parent="1" vertex="1">
          <mxGeometry x="1996.1560283687945" y="845.1854545454545" width="60" height="30" as="geometry" />
        </mxCell>
        <mxCell id="68v2hLTrzGkSt8X37CVW-124" value="DepthwiseConv2D" style="text;html=1;align=center;verticalAlign=middle;resizable=0;points=[];autosize=1;strokeColor=none;fillColor=none;rotation=90;fontSize=10;container=0;" parent="1" vertex="1">
          <mxGeometry x="1970.0037588652483" y="954.2763636363636" width="110" height="30" as="geometry" />
        </mxCell>
        <mxCell id="68v2hLTrzGkSt8X37CVW-125" value="SeparableConv2D" style="text;html=1;align=center;verticalAlign=middle;resizable=0;points=[];autosize=1;strokeColor=none;fillColor=none;rotation=90;fontSize=10;container=0;" parent="1" vertex="1">
          <mxGeometry x="1970.0037588652483" y="1087.0036363636366" width="110" height="30" as="geometry" />
        </mxCell>
        <mxCell id="68v2hLTrzGkSt8X37CVW-126" value="" style="shape=waypoint;sketch=0;fillStyle=solid;size=6;pointerEvents=1;points=[];fillColor=none;resizable=0;rotatable=0;perimeter=centerPerimeter;snapToPoint=1;fontSize=10;container=0;" parent="1" vertex="1">
          <mxGeometry x="1761.7943262411347" y="832.4545454545455" width="20" height="20" as="geometry" />
        </mxCell>
        <mxCell id="68v2hLTrzGkSt8X37CVW-127" value="" style="shape=waypoint;sketch=0;fillStyle=solid;size=6;pointerEvents=1;points=[];fillColor=none;resizable=0;rotatable=0;perimeter=centerPerimeter;snapToPoint=1;fontSize=10;container=0;" parent="1" vertex="1">
          <mxGeometry x="1783.7801418439717" y="832.4545454545455" width="20" height="20" as="geometry" />
        </mxCell>
        <mxCell id="68v2hLTrzGkSt8X37CVW-128" value="" style="shape=waypoint;sketch=0;fillStyle=solid;size=6;pointerEvents=1;points=[];fillColor=none;resizable=0;rotatable=0;perimeter=centerPerimeter;snapToPoint=1;fontSize=10;container=0;" parent="1" vertex="1">
          <mxGeometry x="1805.7659574468087" y="832.4545454545455" width="20" height="20" as="geometry" />
        </mxCell>
        <mxCell id="68v2hLTrzGkSt8X37CVW-129" value="" style="shape=waypoint;sketch=0;fillStyle=solid;size=6;pointerEvents=1;points=[];fillColor=none;resizable=0;rotatable=0;perimeter=centerPerimeter;snapToPoint=1;fontSize=10;container=0;" parent="1" vertex="1">
          <mxGeometry x="1761.7943262411347" y="941.5454545454545" width="20" height="20" as="geometry" />
        </mxCell>
        <mxCell id="68v2hLTrzGkSt8X37CVW-130" value="" style="shape=waypoint;sketch=0;fillStyle=solid;size=6;pointerEvents=1;points=[];fillColor=none;resizable=0;rotatable=0;perimeter=centerPerimeter;snapToPoint=1;fontSize=10;container=0;" parent="1" vertex="1">
          <mxGeometry x="1783.7801418439717" y="941.5454545454545" width="20" height="20" as="geometry" />
        </mxCell>
        <mxCell id="68v2hLTrzGkSt8X37CVW-131" value="" style="shape=waypoint;sketch=0;fillStyle=solid;size=6;pointerEvents=1;points=[];fillColor=none;resizable=0;rotatable=0;perimeter=centerPerimeter;snapToPoint=1;fontSize=10;container=0;" parent="1" vertex="1">
          <mxGeometry x="1805.7659574468087" y="941.5454545454545" width="20" height="20" as="geometry" />
        </mxCell>
        <mxCell id="68v2hLTrzGkSt8X37CVW-132" value="" style="shape=waypoint;sketch=0;fillStyle=solid;size=6;pointerEvents=1;points=[];fillColor=none;resizable=0;rotatable=0;perimeter=centerPerimeter;snapToPoint=1;fontSize=10;container=0;" parent="1" vertex="1">
          <mxGeometry x="1761.7943262411347" y="1050.6363636363635" width="20" height="20" as="geometry" />
        </mxCell>
        <mxCell id="68v2hLTrzGkSt8X37CVW-133" value="" style="shape=waypoint;sketch=0;fillStyle=solid;size=6;pointerEvents=1;points=[];fillColor=none;resizable=0;rotatable=0;perimeter=centerPerimeter;snapToPoint=1;fontSize=10;container=0;" parent="1" vertex="1">
          <mxGeometry x="1783.7801418439717" y="1050.6363636363635" width="20" height="20" as="geometry" />
        </mxCell>
        <mxCell id="68v2hLTrzGkSt8X37CVW-134" value="" style="shape=waypoint;sketch=0;fillStyle=solid;size=6;pointerEvents=1;points=[];fillColor=none;resizable=0;rotatable=0;perimeter=centerPerimeter;snapToPoint=1;fontSize=10;container=0;" parent="1" vertex="1">
          <mxGeometry x="1805.7659574468087" y="1050.6363636363635" width="20" height="20" as="geometry" />
        </mxCell>
        <mxCell id="68v2hLTrzGkSt8X37CVW-135" value="" style="shape=waypoint;sketch=0;fillStyle=solid;size=6;pointerEvents=1;points=[];fillColor=none;resizable=0;rotatable=0;perimeter=centerPerimeter;snapToPoint=1;fontSize=10;container=0;" parent="1" vertex="1">
          <mxGeometry x="1760.695035460993" y="1122.4545454545455" width="20" height="20" as="geometry" />
        </mxCell>
        <mxCell id="68v2hLTrzGkSt8X37CVW-136" value="" style="shape=waypoint;sketch=0;fillStyle=solid;size=6;pointerEvents=1;points=[];fillColor=none;resizable=0;rotatable=0;perimeter=centerPerimeter;snapToPoint=1;fontSize=10;container=0;" parent="1" vertex="1">
          <mxGeometry x="1782.6808510638298" y="1122.4545454545455" width="20" height="20" as="geometry" />
        </mxCell>
        <mxCell id="68v2hLTrzGkSt8X37CVW-137" value="" style="shape=waypoint;sketch=0;fillStyle=solid;size=6;pointerEvents=1;points=[];fillColor=none;resizable=0;rotatable=0;perimeter=centerPerimeter;snapToPoint=1;fontSize=10;container=0;" parent="1" vertex="1">
          <mxGeometry x="1804.6666666666667" y="1122.4545454545455" width="20" height="20" as="geometry" />
        </mxCell>
        <mxCell id="DW2b4gs_Y9G-pgy9xu3x-26" style="edgeStyle=orthogonalEdgeStyle;rounded=0;orthogonalLoop=1;jettySize=auto;html=1;exitX=0;exitY=0.5;exitDx=0;exitDy=0;entryX=0.5;entryY=0;entryDx=0;entryDy=0;" edge="1" parent="1" source="DW2b4gs_Y9G-pgy9xu3x-2" target="68v2hLTrzGkSt8X37CVW-7">
          <mxGeometry relative="1" as="geometry" />
        </mxCell>
        <mxCell id="DW2b4gs_Y9G-pgy9xu3x-27" style="edgeStyle=orthogonalEdgeStyle;rounded=0;orthogonalLoop=1;jettySize=auto;html=1;" edge="1" parent="1" source="DW2b4gs_Y9G-pgy9xu3x-19" target="68v2hLTrzGkSt8X37CVW-25">
          <mxGeometry relative="1" as="geometry" />
        </mxCell>
        <mxCell id="DW2b4gs_Y9G-pgy9xu3x-23" value="" style="ellipse;whiteSpace=wrap;html=1;fillColor=none;container=0;rotation=0;" vertex="1" parent="1">
          <mxGeometry x="1797" y="308.21" width="210" height="149.04" as="geometry" />
        </mxCell>
        <mxCell id="DW2b4gs_Y9G-pgy9xu3x-2" value="" style="ellipse;whiteSpace=wrap;html=1;fillColor=none;container=0;dashed=1;dashPattern=12 12;" vertex="1" parent="1">
          <mxGeometry x="1806" y="327.25" width="150" height="110" as="geometry" />
        </mxCell>
        <mxCell id="DW2b4gs_Y9G-pgy9xu3x-3" value="" style="ellipse;whiteSpace=wrap;html=1;aspect=fixed;fillColor=none;container=0;" vertex="1" parent="1">
          <mxGeometry x="1816" y="349.25" width="30" height="30" as="geometry" />
        </mxCell>
        <mxCell id="DW2b4gs_Y9G-pgy9xu3x-4" value="" style="ellipse;whiteSpace=wrap;html=1;aspect=fixed;fillColor=none;container=0;" vertex="1" parent="1">
          <mxGeometry x="1896" y="344.25" width="40" height="40" as="geometry" />
        </mxCell>
        <mxCell id="DW2b4gs_Y9G-pgy9xu3x-5" value="" style="ellipse;whiteSpace=wrap;html=1;aspect=fixed;fillColor=none;container=0;" vertex="1" parent="1">
          <mxGeometry x="1841" y="394.25" width="40" height="40" as="geometry" />
        </mxCell>
        <mxCell id="DW2b4gs_Y9G-pgy9xu3x-6" value="" style="ellipse;whiteSpace=wrap;html=1;aspect=fixed;fillColor=none;container=0;" vertex="1" parent="1">
          <mxGeometry x="1830" y="337.25" width="30" height="30" as="geometry" />
        </mxCell>
        <mxCell id="DW2b4gs_Y9G-pgy9xu3x-7" value="" style="ellipse;whiteSpace=wrap;html=1;aspect=fixed;fillColor=none;container=0;" vertex="1" parent="1">
          <mxGeometry x="1908.8900000000003" y="349.25" width="40" height="40" as="geometry" />
        </mxCell>
        <mxCell id="DW2b4gs_Y9G-pgy9xu3x-8" value="" style="ellipse;whiteSpace=wrap;html=1;aspect=fixed;fillColor=none;container=0;" vertex="1" parent="1">
          <mxGeometry x="1850" y="389.25" width="40" height="40" as="geometry" />
        </mxCell>
        <mxCell id="DW2b4gs_Y9G-pgy9xu3x-9" value="" style="shape=waypoint;sketch=0;fillStyle=solid;size=6;pointerEvents=1;points=[];fillColor=none;resizable=0;rotatable=0;perimeter=centerPerimeter;snapToPoint=1;" vertex="1" parent="1">
          <mxGeometry x="1821" y="354.25" width="20" height="20" as="geometry" />
        </mxCell>
        <mxCell id="DW2b4gs_Y9G-pgy9xu3x-10" value="" style="shape=waypoint;sketch=0;fillStyle=solid;size=6;pointerEvents=1;points=[];fillColor=none;resizable=0;rotatable=0;perimeter=centerPerimeter;snapToPoint=1;" vertex="1" parent="1">
          <mxGeometry x="1835" y="342.25" width="20" height="20" as="geometry" />
        </mxCell>
        <mxCell id="DW2b4gs_Y9G-pgy9xu3x-11" value="" style="endArrow=open;html=1;rounded=0;dashed=1;dashPattern=1 1;strokeWidth=1;endFill=0;" edge="1" parent="1" source="DW2b4gs_Y9G-pgy9xu3x-9">
          <mxGeometry width="50" height="50" relative="1" as="geometry">
            <mxPoint x="1816" y="387.25" as="sourcePoint" />
            <mxPoint x="1845" y="352.25" as="targetPoint" />
          </mxGeometry>
        </mxCell>
        <mxCell id="DW2b4gs_Y9G-pgy9xu3x-12" value="" style="shape=waypoint;sketch=0;fillStyle=solid;size=6;pointerEvents=1;points=[];fillColor=none;resizable=0;rotatable=0;perimeter=centerPerimeter;snapToPoint=1;" vertex="1" parent="1">
          <mxGeometry x="1850" y="404.25" width="20" height="20" as="geometry" />
        </mxCell>
        <mxCell id="DW2b4gs_Y9G-pgy9xu3x-13" value="" style="shape=waypoint;sketch=0;fillStyle=solid;size=6;pointerEvents=1;points=[];fillColor=none;resizable=0;rotatable=0;perimeter=centerPerimeter;snapToPoint=1;" vertex="1" parent="1">
          <mxGeometry x="1861" y="399.25" width="20" height="20" as="geometry" />
        </mxCell>
        <mxCell id="DW2b4gs_Y9G-pgy9xu3x-14" value="" style="endArrow=open;html=1;rounded=0;dashed=1;dashPattern=1 1;strokeWidth=1;endFill=0;" edge="1" parent="1" source="DW2b4gs_Y9G-pgy9xu3x-12" target="DW2b4gs_Y9G-pgy9xu3x-13">
          <mxGeometry width="50" height="50" relative="1" as="geometry">
            <mxPoint x="1853" y="429.25" as="sourcePoint" />
            <mxPoint x="1867" y="417.25" as="targetPoint" />
          </mxGeometry>
        </mxCell>
        <mxCell id="DW2b4gs_Y9G-pgy9xu3x-15" value="" style="shape=waypoint;sketch=0;fillStyle=solid;size=6;pointerEvents=1;points=[];fillColor=none;resizable=0;rotatable=0;perimeter=centerPerimeter;snapToPoint=1;" vertex="1" parent="1">
          <mxGeometry x="1918.8900000000003" y="360.25" width="20" height="20" as="geometry" />
        </mxCell>
        <mxCell id="DW2b4gs_Y9G-pgy9xu3x-16" value="" style="shape=waypoint;sketch=0;fillStyle=solid;size=6;pointerEvents=1;points=[];fillColor=none;resizable=0;rotatable=0;perimeter=centerPerimeter;snapToPoint=1;" vertex="1" parent="1">
          <mxGeometry x="1904.8900000000003" y="353.25" width="20" height="20" as="geometry" />
        </mxCell>
        <mxCell id="DW2b4gs_Y9G-pgy9xu3x-17" value="" style="endArrow=open;html=1;rounded=0;dashed=1;dashPattern=1 1;strokeWidth=1;endFill=0;" edge="1" parent="1" source="DW2b4gs_Y9G-pgy9xu3x-16" target="DW2b4gs_Y9G-pgy9xu3x-15">
          <mxGeometry width="50" height="50" relative="1" as="geometry">
            <mxPoint x="1859" y="397.25" as="sourcePoint" />
            <mxPoint x="1889" y="357.25" as="targetPoint" />
          </mxGeometry>
        </mxCell>
        <mxCell id="DW2b4gs_Y9G-pgy9xu3x-18" value="" style="ellipse;whiteSpace=wrap;html=1;aspect=fixed;fillColor=none;container=0;" vertex="1" parent="1">
          <mxGeometry x="1948.8899999999999" y="396.25" width="30" height="30" as="geometry" />
        </mxCell>
        <mxCell id="DW2b4gs_Y9G-pgy9xu3x-19" value="" style="ellipse;whiteSpace=wrap;html=1;aspect=fixed;fillColor=none;container=0;" vertex="1" parent="1">
          <mxGeometry x="1962.8899999999999" y="384.25" width="30" height="30" as="geometry" />
        </mxCell>
        <mxCell id="DW2b4gs_Y9G-pgy9xu3x-20" value="" style="shape=waypoint;sketch=0;fillStyle=solid;size=6;pointerEvents=1;points=[];fillColor=none;resizable=0;rotatable=0;perimeter=centerPerimeter;snapToPoint=1;" vertex="1" parent="1">
          <mxGeometry x="1953.8899999999999" y="401.25" width="20" height="20" as="geometry" />
        </mxCell>
        <mxCell id="DW2b4gs_Y9G-pgy9xu3x-21" value="" style="shape=waypoint;sketch=0;fillStyle=solid;size=6;pointerEvents=1;points=[];fillColor=none;resizable=0;rotatable=0;perimeter=centerPerimeter;snapToPoint=1;" vertex="1" parent="1">
          <mxGeometry x="1967.8899999999999" y="389.25" width="20" height="20" as="geometry" />
        </mxCell>
        <mxCell id="DW2b4gs_Y9G-pgy9xu3x-22" value="" style="endArrow=open;html=1;rounded=0;dashed=1;dashPattern=1 1;strokeWidth=1;endFill=0;" edge="1" parent="1" source="DW2b4gs_Y9G-pgy9xu3x-20">
          <mxGeometry width="50" height="50" relative="1" as="geometry">
            <mxPoint x="1948.8899999999999" y="434.25" as="sourcePoint" />
            <mxPoint x="1977.8899999999999" y="399.25" as="targetPoint" />
          </mxGeometry>
        </mxCell>
        <mxCell id="DW2b4gs_Y9G-pgy9xu3x-28" value="Competitive learning" style="text;html=1;align=center;verticalAlign=middle;resizable=0;points=[];autosize=1;strokeColor=none;fillColor=none;rotation=0;fontSize=10;container=0;" vertex="1" parent="1">
          <mxGeometry x="1846" y="426.25" width="110" height="30" as="geometry" />
        </mxCell>
        <mxCell id="DW2b4gs_Y9G-pgy9xu3x-34" value="" style="group" vertex="1" connectable="0" parent="1">
          <mxGeometry x="1550" y="244" width="140" height="88" as="geometry" />
        </mxCell>
        <mxCell id="DW2b4gs_Y9G-pgy9xu3x-32" value="&lt;div&gt;&amp;nbsp;&amp;nbsp;&amp;nbsp;&amp;nbsp;&amp;nbsp; Bandpass&lt;/div&gt;&lt;div&gt;&amp;nbsp; &amp;nbsp; &amp;nbsp; filter&lt;/div&gt;" style="shape=step;perimeter=stepPerimeter;whiteSpace=wrap;html=1;fixedSize=1;align=left;fillColor=none;" vertex="1" parent="DW2b4gs_Y9G-pgy9xu3x-34">
          <mxGeometry width="79.68694414799006" height="88" as="geometry" />
        </mxCell>
        <mxCell id="DW2b4gs_Y9G-pgy9xu3x-33" value="&lt;div&gt;&amp;nbsp;&amp;nbsp;&amp;nbsp;&amp;nbsp;&amp;nbsp; Data&lt;/div&gt;&lt;div&gt;&amp;nbsp;&amp;nbsp;&amp;nbsp;&amp;nbsp;&amp;nbsp; cropping&lt;/div&gt;" style="shape=step;perimeter=stepPerimeter;whiteSpace=wrap;html=1;fixedSize=1;align=left;fillColor=none;" vertex="1" parent="DW2b4gs_Y9G-pgy9xu3x-34">
          <mxGeometry x="60.31305585200993" width="79.68694414799006" height="88" as="geometry" />
        </mxCell>
        <mxCell id="DW2b4gs_Y9G-pgy9xu3x-35" style="edgeStyle=orthogonalEdgeStyle;rounded=0;orthogonalLoop=1;jettySize=auto;html=1;entryX=0;entryY=0.5;entryDx=0;entryDy=0;" edge="1" parent="1" source="DW2b4gs_Y9G-pgy9xu3x-33" target="68v2hLTrzGkSt8X37CVW-153">
          <mxGeometry relative="1" as="geometry" />
        </mxCell>
        <mxCell id="DW2b4gs_Y9G-pgy9xu3x-37" value="" style="shape=waypoint;sketch=0;fillStyle=solid;size=6;pointerEvents=1;points=[];fillColor=none;resizable=0;rotatable=0;perimeter=centerPerimeter;snapToPoint=1;" vertex="1" parent="1">
          <mxGeometry x="1955" y="340" width="20" height="20" as="geometry" />
        </mxCell>
        <mxCell id="DW2b4gs_Y9G-pgy9xu3x-41" value="" style="group;direction=north;rotation=45;" vertex="1" connectable="0" parent="1">
          <mxGeometry x="1955" y="340" width="20" height="20" as="geometry" />
        </mxCell>
        <mxCell id="DW2b4gs_Y9G-pgy9xu3x-39" value="" style="endArrow=none;html=1;rounded=0;" edge="1" parent="DW2b4gs_Y9G-pgy9xu3x-41">
          <mxGeometry width="50" height="50" relative="1" as="geometry">
            <mxPoint x="3" y="3" as="sourcePoint" />
            <mxPoint x="17" y="17" as="targetPoint" />
          </mxGeometry>
        </mxCell>
        <mxCell id="DW2b4gs_Y9G-pgy9xu3x-40" value="" style="endArrow=none;html=1;rounded=0;" edge="1" parent="DW2b4gs_Y9G-pgy9xu3x-41">
          <mxGeometry width="50" height="50" relative="1" as="geometry">
            <mxPoint x="3" y="17" as="sourcePoint" />
            <mxPoint x="17" y="3" as="targetPoint" />
          </mxGeometry>
        </mxCell>
        <mxCell id="DW2b4gs_Y9G-pgy9xu3x-44" value="" style="rounded=1;whiteSpace=wrap;html=1;fillColor=none;fontSize=10;container=0;" vertex="1" parent="1">
          <mxGeometry x="2850" y="70" width="530" height="120" as="geometry" />
        </mxCell>
        <mxCell id="DW2b4gs_Y9G-pgy9xu3x-45" style="edgeStyle=orthogonalEdgeStyle;rounded=0;orthogonalLoop=1;jettySize=auto;html=1;fontSize=10;" edge="1" parent="1" source="DW2b4gs_Y9G-pgy9xu3x-46" target="DW2b4gs_Y9G-pgy9xu3x-48">
          <mxGeometry relative="1" as="geometry" />
        </mxCell>
        <mxCell id="DW2b4gs_Y9G-pgy9xu3x-46" value="Electrode placement map" style="rounded=0;whiteSpace=wrap;html=1;fontSize=10;container=0;fillColor=none;" vertex="1" parent="1">
          <mxGeometry x="2870" y="102" width="60" height="60" as="geometry" />
        </mxCell>
        <mxCell id="DW2b4gs_Y9G-pgy9xu3x-47" value="" style="edgeStyle=orthogonalEdgeStyle;rounded=0;orthogonalLoop=1;jettySize=auto;html=1;fontSize=10;" edge="1" parent="1" source="DW2b4gs_Y9G-pgy9xu3x-48" target="DW2b4gs_Y9G-pgy9xu3x-50">
          <mxGeometry relative="1" as="geometry" />
        </mxCell>
        <mxCell id="DW2b4gs_Y9G-pgy9xu3x-48" value="Physiological and anatomical basis" style="whiteSpace=wrap;html=1;fillColor=none;strokeWidth=1;fontSize=10;container=0;" vertex="1" parent="1">
          <mxGeometry x="2968.8900000000003" y="102" width="120" height="60" as="geometry" />
        </mxCell>
        <mxCell id="DW2b4gs_Y9G-pgy9xu3x-49" value="" style="edgeStyle=orthogonalEdgeStyle;rounded=0;orthogonalLoop=1;jettySize=auto;html=1;fontSize=10;" edge="1" parent="1" source="DW2b4gs_Y9G-pgy9xu3x-50" target="DW2b4gs_Y9G-pgy9xu3x-51">
          <mxGeometry relative="1" as="geometry" />
        </mxCell>
        <mxCell id="DW2b4gs_Y9G-pgy9xu3x-50" value="Relationship between distance and weight" style="whiteSpace=wrap;html=1;fillColor=none;strokeWidth=1;fontSize=10;container=0;" vertex="1" parent="1">
          <mxGeometry x="3135" y="102" width="120" height="60" as="geometry" />
        </mxCell>
        <mxCell id="DW2b4gs_Y9G-pgy9xu3x-51" value="Size of weight" style="whiteSpace=wrap;html=1;fillColor=none;strokeWidth=1;fontSize=10;container=0;" vertex="1" parent="1">
          <mxGeometry x="3300" y="102" width="60" height="60" as="geometry" />
        </mxCell>
        <mxCell id="DW2b4gs_Y9G-pgy9xu3x-52" value="&lt;div&gt;Data augmentation based on&lt;/div&gt;&lt;div&gt;other electrodes&#39; data&lt;/div&gt;" style="text;html=1;align=center;verticalAlign=middle;resizable=0;points=[];autosize=1;strokeColor=none;fillColor=none;rotation=0;fontSize=10;container=0;" vertex="1" parent="1">
          <mxGeometry x="3028" y="155" width="150" height="40" as="geometry" />
        </mxCell>
        <mxCell id="DW2b4gs_Y9G-pgy9xu3x-53" value="" style="rounded=1;whiteSpace=wrap;html=1;fillColor=none;dashed=1;dashPattern=12 12;" vertex="1" parent="1">
          <mxGeometry x="2560" y="380" width="120" height="230" as="geometry" />
        </mxCell>
        <mxCell id="DW2b4gs_Y9G-pgy9xu3x-54" value="Data Prepration" style="text;html=1;align=center;verticalAlign=middle;resizable=0;points=[];autosize=1;strokeColor=none;fillColor=none;" vertex="1" parent="1">
          <mxGeometry x="2565" y="349.25000000000006" width="110" height="30" as="geometry" />
        </mxCell>
        <mxCell id="DW2b4gs_Y9G-pgy9xu3x-55" value="" style="rounded=1;whiteSpace=wrap;html=1;fillColor=none;dashed=1;dashPattern=12 12;" vertex="1" parent="1">
          <mxGeometry x="2750" y="290" width="290" height="321.79" as="geometry" />
        </mxCell>
        <mxCell id="DW2b4gs_Y9G-pgy9xu3x-56" value="Pretrain task" style="text;html=1;align=center;verticalAlign=middle;resizable=0;points=[];autosize=1;strokeColor=none;fillColor=none;" vertex="1" parent="1">
          <mxGeometry x="2840" y="258" width="90" height="30" as="geometry" />
        </mxCell>
        <mxCell id="DW2b4gs_Y9G-pgy9xu3x-59" value="" style="rounded=1;whiteSpace=wrap;html=1;fillColor=none;dashed=1;dashPattern=12 12;" vertex="1" parent="1">
          <mxGeometry x="3070" y="320" width="290" height="238" as="geometry" />
        </mxCell>
        <mxCell id="DW2b4gs_Y9G-pgy9xu3x-60" value="Downstair task" style="text;html=1;align=center;verticalAlign=middle;resizable=0;points=[];autosize=1;strokeColor=none;fillColor=none;" vertex="1" parent="1">
          <mxGeometry x="3165" y="290" width="100" height="30" as="geometry" />
        </mxCell>
        <mxCell id="DW2b4gs_Y9G-pgy9xu3x-63" value="Augmented data" style="rounded=0;whiteSpace=wrap;html=1;fillColor=none;" vertex="1" parent="1">
          <mxGeometry x="3270" y="426.25" width="60" height="60" as="geometry" />
        </mxCell>
        <mxCell id="DW2b4gs_Y9G-pgy9xu3x-64" value="Best alpha" style="rounded=0;whiteSpace=wrap;html=1;fillColor=none;" vertex="1" parent="1">
          <mxGeometry x="3130" y="340.25" width="60" height="60" as="geometry" />
        </mxCell>
        <mxCell id="DW2b4gs_Y9G-pgy9xu3x-77" style="edgeStyle=orthogonalEdgeStyle;rounded=0;orthogonalLoop=1;jettySize=auto;html=1;" edge="1" parent="1" source="DW2b4gs_Y9G-pgy9xu3x-65" target="DW2b4gs_Y9G-pgy9xu3x-73">
          <mxGeometry relative="1" as="geometry" />
        </mxCell>
        <mxCell id="DW2b4gs_Y9G-pgy9xu3x-65" value="Data" style="rounded=0;whiteSpace=wrap;html=1;fillColor=none;" vertex="1" parent="1">
          <mxGeometry x="2590" y="421.25" width="60" height="60" as="geometry" />
        </mxCell>
        <mxCell id="DW2b4gs_Y9G-pgy9xu3x-78" style="edgeStyle=orthogonalEdgeStyle;rounded=0;orthogonalLoop=1;jettySize=auto;html=1;" edge="1" parent="1" source="DW2b4gs_Y9G-pgy9xu3x-66" target="DW2b4gs_Y9G-pgy9xu3x-67">
          <mxGeometry relative="1" as="geometry" />
        </mxCell>
        <mxCell id="DW2b4gs_Y9G-pgy9xu3x-66" value="ApEnLoss" style="rounded=0;whiteSpace=wrap;html=1;fillColor=none;" vertex="1" parent="1">
          <mxGeometry x="2590" y="510" width="60" height="60" as="geometry" />
        </mxCell>
        <mxCell id="DW2b4gs_Y9G-pgy9xu3x-80" style="edgeStyle=orthogonalEdgeStyle;rounded=0;orthogonalLoop=1;jettySize=auto;html=1;" edge="1" parent="1" source="DW2b4gs_Y9G-pgy9xu3x-67" target="DW2b4gs_Y9G-pgy9xu3x-68">
          <mxGeometry relative="1" as="geometry" />
        </mxCell>
        <mxCell id="DW2b4gs_Y9G-pgy9xu3x-67" value="AutoEncoder" style="rounded=0;whiteSpace=wrap;html=1;fillColor=none;" vertex="1" parent="1">
          <mxGeometry x="2780" y="510" width="90" height="60" as="geometry" />
        </mxCell>
        <mxCell id="DW2b4gs_Y9G-pgy9xu3x-81" style="edgeStyle=orthogonalEdgeStyle;rounded=0;orthogonalLoop=1;jettySize=auto;html=1;" edge="1" parent="1" source="DW2b4gs_Y9G-pgy9xu3x-68" target="DW2b4gs_Y9G-pgy9xu3x-69">
          <mxGeometry relative="1" as="geometry" />
        </mxCell>
        <mxCell id="DW2b4gs_Y9G-pgy9xu3x-68" value="&lt;div&gt;Latent representation&lt;/div&gt;" style="rounded=0;whiteSpace=wrap;html=1;fillColor=none;" vertex="1" parent="1">
          <mxGeometry x="2930" y="510" width="90" height="60" as="geometry" />
        </mxCell>
        <mxCell id="DW2b4gs_Y9G-pgy9xu3x-82" style="edgeStyle=orthogonalEdgeStyle;rounded=0;orthogonalLoop=1;jettySize=auto;html=1;" edge="1" parent="1" source="DW2b4gs_Y9G-pgy9xu3x-69" target="DW2b4gs_Y9G-pgy9xu3x-64">
          <mxGeometry relative="1" as="geometry" />
        </mxCell>
        <mxCell id="DW2b4gs_Y9G-pgy9xu3x-83" style="edgeStyle=orthogonalEdgeStyle;rounded=0;orthogonalLoop=1;jettySize=auto;html=1;" edge="1" parent="1" source="DW2b4gs_Y9G-pgy9xu3x-69" target="DW2b4gs_Y9G-pgy9xu3x-63">
          <mxGeometry relative="1" as="geometry" />
        </mxCell>
        <mxCell id="DW2b4gs_Y9G-pgy9xu3x-69" value="&lt;div&gt;&lt;div&gt;LinearRegression&lt;/div&gt;&lt;/div&gt;" style="rounded=0;whiteSpace=wrap;html=1;fillColor=none;" vertex="1" parent="1">
          <mxGeometry x="3100" y="427" width="120" height="60" as="geometry" />
        </mxCell>
        <mxCell id="DW2b4gs_Y9G-pgy9xu3x-74" style="edgeStyle=orthogonalEdgeStyle;rounded=0;orthogonalLoop=1;jettySize=auto;html=1;entryX=0.25;entryY=0;entryDx=0;entryDy=0;" edge="1" parent="1" source="DW2b4gs_Y9G-pgy9xu3x-70" target="DW2b4gs_Y9G-pgy9xu3x-72">
          <mxGeometry relative="1" as="geometry" />
        </mxCell>
        <mxCell id="DW2b4gs_Y9G-pgy9xu3x-70" value="Electrode placement map" style="rounded=0;whiteSpace=wrap;html=1;fontSize=10;container=0;fillColor=none;" vertex="1" parent="1">
          <mxGeometry x="2800" y="310" width="60" height="60" as="geometry" />
        </mxCell>
        <mxCell id="DW2b4gs_Y9G-pgy9xu3x-75" style="edgeStyle=orthogonalEdgeStyle;rounded=0;orthogonalLoop=1;jettySize=auto;html=1;entryX=0.75;entryY=0;entryDx=0;entryDy=0;" edge="1" parent="1" source="DW2b4gs_Y9G-pgy9xu3x-71" target="DW2b4gs_Y9G-pgy9xu3x-72">
          <mxGeometry relative="1" as="geometry" />
        </mxCell>
        <mxCell id="DW2b4gs_Y9G-pgy9xu3x-71" value="Physiological and anatomical basis" style="whiteSpace=wrap;html=1;fillColor=none;strokeWidth=1;fontSize=10;container=0;" vertex="1" parent="1">
          <mxGeometry x="2935.0000000000005" y="310" width="90" height="60" as="geometry" />
        </mxCell>
        <mxCell id="DW2b4gs_Y9G-pgy9xu3x-76" style="edgeStyle=orthogonalEdgeStyle;rounded=0;orthogonalLoop=1;jettySize=auto;html=1;" edge="1" parent="1" source="DW2b4gs_Y9G-pgy9xu3x-72" target="DW2b4gs_Y9G-pgy9xu3x-73">
          <mxGeometry relative="1" as="geometry" />
        </mxCell>
        <mxCell id="DW2b4gs_Y9G-pgy9xu3x-72" value="Relationship between distance and weight" style="whiteSpace=wrap;html=1;fillColor=none;strokeWidth=1;fontSize=10;container=0;" vertex="1" parent="1">
          <mxGeometry x="2890" y="421.25" width="120" height="60" as="geometry" />
        </mxCell>
        <mxCell id="DW2b4gs_Y9G-pgy9xu3x-79" style="edgeStyle=orthogonalEdgeStyle;rounded=0;orthogonalLoop=1;jettySize=auto;html=1;" edge="1" parent="1" source="DW2b4gs_Y9G-pgy9xu3x-73" target="DW2b4gs_Y9G-pgy9xu3x-67">
          <mxGeometry relative="1" as="geometry" />
        </mxCell>
        <mxCell id="DW2b4gs_Y9G-pgy9xu3x-73" value="Data weighter" style="whiteSpace=wrap;html=1;fillColor=none;strokeWidth=1;fontSize=10;container=0;" vertex="1" parent="1">
          <mxGeometry x="2795" y="421.25" width="60" height="60" as="geometry" />
        </mxCell>
        <mxCell id="DW2b4gs_Y9G-pgy9xu3x-84" value="" style="shape=ext;double=1;rounded=1;whiteSpace=wrap;html=1;fillColor=none;fontSize=10;container=0;" vertex="1" parent="1">
          <mxGeometry x="2560" y="690" width="680" height="660" as="geometry" />
        </mxCell>
        <mxCell id="DW2b4gs_Y9G-pgy9xu3x-194" value="" style="rounded=1;whiteSpace=wrap;html=1;fillColor=none;dashed=1;dashPattern=12 12;" vertex="1" parent="1">
          <mxGeometry x="2580" y="963.91" width="580" height="260" as="geometry" />
        </mxCell>
        <mxCell id="DW2b4gs_Y9G-pgy9xu3x-85" value="" style="rounded=1;whiteSpace=wrap;html=1;fillColor=none;container=0;dashed=1;dashPattern=12 12;" vertex="1" parent="1">
          <mxGeometry x="2840" y="725" width="310" height="220" as="geometry" />
        </mxCell>
        <mxCell id="DW2b4gs_Y9G-pgy9xu3x-86" value="High quality data" style="rounded=0;whiteSpace=wrap;html=1;fontSize=10;container=0;fillColor=none;aspect=fixed;" vertex="1" parent="1">
          <mxGeometry x="3140" y="1250" width="60" height="60" as="geometry" />
        </mxCell>
        <mxCell id="DW2b4gs_Y9G-pgy9xu3x-197" style="edgeStyle=orthogonalEdgeStyle;rounded=0;orthogonalLoop=1;jettySize=auto;html=1;exitX=1;exitY=0.5;exitDx=0;exitDy=0;entryX=0;entryY=0.5;entryDx=0;entryDy=0;" edge="1" parent="1" source="DW2b4gs_Y9G-pgy9xu3x-87" target="DW2b4gs_Y9G-pgy9xu3x-195">
          <mxGeometry relative="1" as="geometry" />
        </mxCell>
        <mxCell id="DW2b4gs_Y9G-pgy9xu3x-87" value="Augmented data" style="rounded=0;whiteSpace=wrap;html=1;fontSize=10;container=0;fillColor=none;" vertex="1" parent="1">
          <mxGeometry x="2625" y="1250" width="60" height="60" as="geometry" />
        </mxCell>
        <mxCell id="DW2b4gs_Y9G-pgy9xu3x-183" style="edgeStyle=orthogonalEdgeStyle;rounded=0;orthogonalLoop=1;jettySize=auto;html=1;exitX=0.75;exitY=1;exitDx=0;exitDy=0;" edge="1" parent="1" source="DW2b4gs_Y9G-pgy9xu3x-89" target="DW2b4gs_Y9G-pgy9xu3x-174">
          <mxGeometry relative="1" as="geometry" />
        </mxCell>
        <mxCell id="DW2b4gs_Y9G-pgy9xu3x-89" value="&lt;div&gt;Low quality data&lt;/div&gt;&lt;div&gt;(small-sample)&lt;/div&gt;" style="rounded=0;whiteSpace=wrap;html=1;fontSize=10;container=0;fillColor=none;" vertex="1" parent="1">
          <mxGeometry x="2620" y="851" width="140" height="60" as="geometry" />
        </mxCell>
        <mxCell id="DW2b4gs_Y9G-pgy9xu3x-93" style="edgeStyle=orthogonalEdgeStyle;rounded=0;orthogonalLoop=1;jettySize=auto;html=1;entryX=0;entryY=0.5;entryDx=0;entryDy=0;" edge="1" parent="1" source="DW2b4gs_Y9G-pgy9xu3x-94" target="DW2b4gs_Y9G-pgy9xu3x-135">
          <mxGeometry relative="1" as="geometry" />
        </mxCell>
        <mxCell id="DW2b4gs_Y9G-pgy9xu3x-94" value="Raw data" style="rounded=0;whiteSpace=wrap;html=1;fontSize=10;container=0;fillColor=none;" vertex="1" parent="1">
          <mxGeometry x="2590" y="740" width="60" height="60" as="geometry" />
        </mxCell>
        <mxCell id="DW2b4gs_Y9G-pgy9xu3x-95" value="Data preprocessing" style="text;html=1;align=center;verticalAlign=middle;resizable=0;points=[];autosize=1;strokeColor=none;fillColor=none;rotation=90;fontSize=10;container=0;" vertex="1" parent="1">
          <mxGeometry x="3160" y="978.1799999999998" width="110" height="30" as="geometry" />
        </mxCell>
        <mxCell id="DW2b4gs_Y9G-pgy9xu3x-96" value="&lt;font style=&quot;font-size: 10px;&quot;&gt;ApEn calculator&lt;/font&gt;" style="rounded=0;whiteSpace=wrap;html=1;fillColor=none;container=0;" vertex="1" parent="1">
          <mxGeometry x="2860" y="755" width="120" height="30" as="geometry" />
        </mxCell>
        <mxCell id="DW2b4gs_Y9G-pgy9xu3x-97" value="" style="rounded=0;orthogonalLoop=1;jettySize=auto;html=1;edgeStyle=orthogonalEdgeStyle;entryX=1;entryY=0.5;entryDx=0;entryDy=0;" edge="1" parent="1" source="DW2b4gs_Y9G-pgy9xu3x-86" target="DW2b4gs_Y9G-pgy9xu3x-195">
          <mxGeometry relative="1" as="geometry">
            <mxPoint x="3050" y="1189.4099999999999" as="sourcePoint" />
            <mxPoint x="3980" y="1404.4099999999999" as="targetPoint" />
          </mxGeometry>
        </mxCell>
        <mxCell id="DW2b4gs_Y9G-pgy9xu3x-98" value="" style="edgeStyle=orthogonalEdgeStyle;rounded=0;orthogonalLoop=1;jettySize=auto;html=1;entryX=1;entryY=0;entryDx=0;entryDy=0;exitX=1;exitY=0.5;exitDx=0;exitDy=0;" edge="1" parent="1" source="DW2b4gs_Y9G-pgy9xu3x-96">
          <mxGeometry relative="1" as="geometry">
            <mxPoint x="3033" y="852.2499999999999" as="sourcePoint" />
            <mxPoint x="3096.630783198815" y="810.3107594198799" as="targetPoint" />
          </mxGeometry>
        </mxCell>
        <mxCell id="DW2b4gs_Y9G-pgy9xu3x-99" value="&lt;div align=&quot;center&quot;&gt;&lt;font style=&quot;font-size: 10px;&quot;&gt;ApEn detector&lt;/font&gt;&lt;/div&gt;" style="text;whiteSpace=wrap;html=1;align=center;container=0;rotation=90;" vertex="1" parent="1">
          <mxGeometry x="3100" y="810" width="80" height="30" as="geometry" />
        </mxCell>
        <mxCell id="DW2b4gs_Y9G-pgy9xu3x-109" style="edgeStyle=orthogonalEdgeStyle;rounded=0;orthogonalLoop=1;jettySize=auto;html=1;exitX=1;exitY=0.5;exitDx=0;exitDy=0;entryX=0.5;entryY=0;entryDx=0;entryDy=0;" edge="1" parent="1" source="DW2b4gs_Y9G-pgy9xu3x-145" target="DW2b4gs_Y9G-pgy9xu3x-86">
          <mxGeometry relative="1" as="geometry">
            <mxPoint x="2925.999999999978" y="862.2499999999999" as="sourcePoint" />
          </mxGeometry>
        </mxCell>
        <mxCell id="DW2b4gs_Y9G-pgy9xu3x-110" style="edgeStyle=orthogonalEdgeStyle;rounded=0;orthogonalLoop=1;jettySize=auto;html=1;exitX=0;exitY=0.5;exitDx=0;exitDy=0;" edge="1" parent="1" source="DW2b4gs_Y9G-pgy9xu3x-161" target="DW2b4gs_Y9G-pgy9xu3x-89">
          <mxGeometry relative="1" as="geometry">
            <mxPoint x="3112.8897299975697" y="879.16" as="sourcePoint" />
          </mxGeometry>
        </mxCell>
        <mxCell id="DW2b4gs_Y9G-pgy9xu3x-133" value="Competitive learning" style="text;html=1;align=center;verticalAlign=middle;resizable=0;points=[];autosize=1;strokeColor=none;fillColor=none;rotation=0;fontSize=10;container=0;" vertex="1" parent="1">
          <mxGeometry x="2966" y="906.2499999999999" width="110" height="30" as="geometry" />
        </mxCell>
        <mxCell id="DW2b4gs_Y9G-pgy9xu3x-134" value="" style="group" vertex="1" connectable="0" parent="1">
          <mxGeometry x="2680" y="726" width="140" height="90" as="geometry" />
        </mxCell>
        <mxCell id="DW2b4gs_Y9G-pgy9xu3x-135" value="&lt;div&gt;&amp;nbsp;&amp;nbsp;&amp;nbsp;&amp;nbsp;&amp;nbsp; Bandpass&lt;/div&gt;&lt;div&gt;&amp;nbsp; &amp;nbsp; &amp;nbsp; filter&lt;/div&gt;" style="shape=step;perimeter=stepPerimeter;whiteSpace=wrap;html=1;fixedSize=1;align=left;fillColor=none;" vertex="1" parent="DW2b4gs_Y9G-pgy9xu3x-134">
          <mxGeometry width="79.68694414799006" height="88" as="geometry" />
        </mxCell>
        <mxCell id="DW2b4gs_Y9G-pgy9xu3x-136" value="&lt;div&gt;&amp;nbsp;&amp;nbsp;&amp;nbsp;&amp;nbsp;&amp;nbsp; Data&lt;/div&gt;&lt;div&gt;&amp;nbsp;&amp;nbsp;&amp;nbsp;&amp;nbsp;&amp;nbsp; cropping&lt;/div&gt;" style="shape=step;perimeter=stepPerimeter;whiteSpace=wrap;html=1;fixedSize=1;align=left;fillColor=none;" vertex="1" parent="DW2b4gs_Y9G-pgy9xu3x-134">
          <mxGeometry x="60.31305585200993" width="79.68694414799006" height="88" as="geometry" />
        </mxCell>
        <mxCell id="DW2b4gs_Y9G-pgy9xu3x-137" style="edgeStyle=orthogonalEdgeStyle;rounded=0;orthogonalLoop=1;jettySize=auto;html=1;entryX=0;entryY=0.5;entryDx=0;entryDy=0;" edge="1" parent="1" source="DW2b4gs_Y9G-pgy9xu3x-136" target="DW2b4gs_Y9G-pgy9xu3x-96">
          <mxGeometry relative="1" as="geometry" />
        </mxCell>
        <mxCell id="DW2b4gs_Y9G-pgy9xu3x-171" value="" style="group" vertex="1" connectable="0" parent="1">
          <mxGeometry x="2920" y="790" width="210" height="150" as="geometry" />
        </mxCell>
        <mxCell id="DW2b4gs_Y9G-pgy9xu3x-144" value="" style="ellipse;whiteSpace=wrap;html=1;fillColor=none;container=0;rotation=0;" vertex="1" parent="DW2b4gs_Y9G-pgy9xu3x-171">
          <mxGeometry width="210" height="149.04" as="geometry" />
        </mxCell>
        <mxCell id="DW2b4gs_Y9G-pgy9xu3x-145" value="" style="ellipse;whiteSpace=wrap;html=1;fillColor=none;container=0;dashed=1;dashPattern=12 12;" vertex="1" parent="DW2b4gs_Y9G-pgy9xu3x-171">
          <mxGeometry x="51" y="19.039999999999964" width="150" height="110" as="geometry" />
        </mxCell>
        <mxCell id="DW2b4gs_Y9G-pgy9xu3x-146" value="" style="ellipse;whiteSpace=wrap;html=1;aspect=fixed;fillColor=none;container=0;" vertex="1" parent="DW2b4gs_Y9G-pgy9xu3x-171">
          <mxGeometry x="71" y="36.039999999999964" width="40" height="40" as="geometry" />
        </mxCell>
        <mxCell id="DW2b4gs_Y9G-pgy9xu3x-147" value="" style="ellipse;whiteSpace=wrap;html=1;aspect=fixed;fillColor=none;container=0;" vertex="1" parent="DW2b4gs_Y9G-pgy9xu3x-171">
          <mxGeometry x="126" y="86.03999999999996" width="40" height="40" as="geometry" />
        </mxCell>
        <mxCell id="DW2b4gs_Y9G-pgy9xu3x-148" value="" style="ellipse;whiteSpace=wrap;html=1;aspect=fixed;fillColor=none;container=0;" vertex="1" parent="DW2b4gs_Y9G-pgy9xu3x-171">
          <mxGeometry x="147" y="29.039999999999964" width="30" height="30" as="geometry" />
        </mxCell>
        <mxCell id="DW2b4gs_Y9G-pgy9xu3x-149" value="" style="ellipse;whiteSpace=wrap;html=1;aspect=fixed;fillColor=none;container=0;" vertex="1" parent="DW2b4gs_Y9G-pgy9xu3x-171">
          <mxGeometry x="58.10999999999967" y="41.039999999999964" width="40" height="40" as="geometry" />
        </mxCell>
        <mxCell id="DW2b4gs_Y9G-pgy9xu3x-150" value="" style="ellipse;whiteSpace=wrap;html=1;aspect=fixed;fillColor=none;container=0;" vertex="1" parent="DW2b4gs_Y9G-pgy9xu3x-171">
          <mxGeometry x="117" y="81.03999999999996" width="40" height="40" as="geometry" />
        </mxCell>
        <mxCell id="DW2b4gs_Y9G-pgy9xu3x-151" value="" style="shape=waypoint;sketch=0;fillStyle=solid;size=6;pointerEvents=1;points=[];fillColor=none;resizable=0;rotatable=0;perimeter=centerPerimeter;snapToPoint=1;" vertex="1" parent="DW2b4gs_Y9G-pgy9xu3x-171">
          <mxGeometry x="166" y="46.039999999999964" width="20" height="20" as="geometry" />
        </mxCell>
        <mxCell id="DW2b4gs_Y9G-pgy9xu3x-152" value="" style="shape=waypoint;sketch=0;fillStyle=solid;size=6;pointerEvents=1;points=[];fillColor=none;resizable=0;rotatable=0;perimeter=centerPerimeter;snapToPoint=1;" vertex="1" parent="DW2b4gs_Y9G-pgy9xu3x-171">
          <mxGeometry x="152" y="34.039999999999964" width="20" height="20" as="geometry" />
        </mxCell>
        <mxCell id="DW2b4gs_Y9G-pgy9xu3x-153" value="" style="endArrow=open;html=1;rounded=0;dashed=1;dashPattern=1 1;strokeWidth=1;endFill=0;" edge="1" parent="DW2b4gs_Y9G-pgy9xu3x-171" source="DW2b4gs_Y9G-pgy9xu3x-151">
          <mxGeometry width="50" height="50" relative="1" as="geometry">
            <mxPoint x="191" y="79.03999999999996" as="sourcePoint" />
            <mxPoint x="162" y="44.039999999999964" as="targetPoint" />
          </mxGeometry>
        </mxCell>
        <mxCell id="DW2b4gs_Y9G-pgy9xu3x-154" value="" style="shape=waypoint;sketch=0;fillStyle=solid;size=6;pointerEvents=1;points=[];fillColor=none;resizable=0;rotatable=0;perimeter=centerPerimeter;snapToPoint=1;" vertex="1" parent="DW2b4gs_Y9G-pgy9xu3x-171">
          <mxGeometry x="137" y="96.03999999999996" width="20" height="20" as="geometry" />
        </mxCell>
        <mxCell id="DW2b4gs_Y9G-pgy9xu3x-155" value="" style="shape=waypoint;sketch=0;fillStyle=solid;size=6;pointerEvents=1;points=[];fillColor=none;resizable=0;rotatable=0;perimeter=centerPerimeter;snapToPoint=1;" vertex="1" parent="DW2b4gs_Y9G-pgy9xu3x-171">
          <mxGeometry x="126" y="91.03999999999996" width="20" height="20" as="geometry" />
        </mxCell>
        <mxCell id="DW2b4gs_Y9G-pgy9xu3x-156" value="" style="endArrow=open;html=1;rounded=0;dashed=1;dashPattern=1 1;strokeWidth=1;endFill=0;" edge="1" parent="DW2b4gs_Y9G-pgy9xu3x-171" source="DW2b4gs_Y9G-pgy9xu3x-155" target="DW2b4gs_Y9G-pgy9xu3x-154">
          <mxGeometry width="50" height="50" relative="1" as="geometry">
            <mxPoint x="140" y="109.03999999999996" as="sourcePoint" />
            <mxPoint x="154" y="121.03999999999996" as="targetPoint" />
          </mxGeometry>
        </mxCell>
        <mxCell id="DW2b4gs_Y9G-pgy9xu3x-157" value="" style="shape=waypoint;sketch=0;fillStyle=solid;size=6;pointerEvents=1;points=[];fillColor=none;resizable=0;rotatable=0;perimeter=centerPerimeter;snapToPoint=1;" vertex="1" parent="DW2b4gs_Y9G-pgy9xu3x-171">
          <mxGeometry x="68.10999999999967" y="52.039999999999964" width="20" height="20" as="geometry" />
        </mxCell>
        <mxCell id="DW2b4gs_Y9G-pgy9xu3x-158" value="" style="shape=waypoint;sketch=0;fillStyle=solid;size=6;pointerEvents=1;points=[];fillColor=none;resizable=0;rotatable=0;perimeter=centerPerimeter;snapToPoint=1;" vertex="1" parent="DW2b4gs_Y9G-pgy9xu3x-171">
          <mxGeometry x="82.10999999999967" y="45.039999999999964" width="20" height="20" as="geometry" />
        </mxCell>
        <mxCell id="DW2b4gs_Y9G-pgy9xu3x-159" value="" style="endArrow=open;html=1;rounded=0;dashed=1;dashPattern=1 1;strokeWidth=1;endFill=0;" edge="1" parent="DW2b4gs_Y9G-pgy9xu3x-171" source="DW2b4gs_Y9G-pgy9xu3x-158" target="DW2b4gs_Y9G-pgy9xu3x-157">
          <mxGeometry width="50" height="50" relative="1" as="geometry">
            <mxPoint x="148" y="89.03999999999996" as="sourcePoint" />
            <mxPoint x="118" y="49.039999999999964" as="targetPoint" />
          </mxGeometry>
        </mxCell>
        <mxCell id="DW2b4gs_Y9G-pgy9xu3x-160" value="" style="ellipse;whiteSpace=wrap;html=1;aspect=fixed;fillColor=none;container=0;" vertex="1" parent="DW2b4gs_Y9G-pgy9xu3x-171">
          <mxGeometry x="28.110000000000127" y="88.03999999999996" width="30" height="30" as="geometry" />
        </mxCell>
        <mxCell id="DW2b4gs_Y9G-pgy9xu3x-161" value="" style="ellipse;whiteSpace=wrap;html=1;aspect=fixed;fillColor=none;container=0;" vertex="1" parent="DW2b4gs_Y9G-pgy9xu3x-171">
          <mxGeometry x="13" y="76" width="30" height="30" as="geometry" />
        </mxCell>
        <mxCell id="DW2b4gs_Y9G-pgy9xu3x-162" value="" style="shape=waypoint;sketch=0;fillStyle=solid;size=6;pointerEvents=1;points=[];fillColor=none;resizable=0;rotatable=0;perimeter=centerPerimeter;snapToPoint=1;" vertex="1" parent="DW2b4gs_Y9G-pgy9xu3x-171">
          <mxGeometry x="33.11000000000013" y="93.03999999999996" width="20" height="20" as="geometry" />
        </mxCell>
        <mxCell id="DW2b4gs_Y9G-pgy9xu3x-163" value="" style="shape=waypoint;sketch=0;fillStyle=solid;size=6;pointerEvents=1;points=[];fillColor=none;resizable=0;rotatable=0;perimeter=centerPerimeter;snapToPoint=1;" vertex="1" parent="DW2b4gs_Y9G-pgy9xu3x-171">
          <mxGeometry x="18" y="81" width="20" height="20" as="geometry" />
        </mxCell>
        <mxCell id="DW2b4gs_Y9G-pgy9xu3x-164" value="" style="endArrow=open;html=1;rounded=0;dashed=1;dashPattern=1 1;strokeWidth=1;endFill=0;" edge="1" parent="DW2b4gs_Y9G-pgy9xu3x-171" source="DW2b4gs_Y9G-pgy9xu3x-162" target="DW2b4gs_Y9G-pgy9xu3x-163">
          <mxGeometry width="50" height="50" relative="1" as="geometry">
            <mxPoint x="58.11000000000013" y="126.03999999999996" as="sourcePoint" />
            <mxPoint x="29.110000000000127" y="91.03999999999996" as="targetPoint" />
          </mxGeometry>
        </mxCell>
        <mxCell id="DW2b4gs_Y9G-pgy9xu3x-165" value="" style="group;direction=north;rotation=45;" vertex="1" connectable="0" parent="DW2b4gs_Y9G-pgy9xu3x-171">
          <mxGeometry x="32" y="31.789999999999964" width="20" height="20" as="geometry" />
        </mxCell>
        <mxCell id="DW2b4gs_Y9G-pgy9xu3x-166" value="" style="endArrow=none;html=1;rounded=0;" edge="1" parent="DW2b4gs_Y9G-pgy9xu3x-165">
          <mxGeometry width="50" height="50" relative="1" as="geometry">
            <mxPoint x="3" y="3" as="sourcePoint" />
            <mxPoint x="17" y="17" as="targetPoint" />
          </mxGeometry>
        </mxCell>
        <mxCell id="DW2b4gs_Y9G-pgy9xu3x-167" value="" style="endArrow=none;html=1;rounded=0;" edge="1" parent="DW2b4gs_Y9G-pgy9xu3x-165">
          <mxGeometry width="50" height="50" relative="1" as="geometry">
            <mxPoint x="3" y="17" as="sourcePoint" />
            <mxPoint x="17" y="3" as="targetPoint" />
          </mxGeometry>
        </mxCell>
        <mxCell id="DW2b4gs_Y9G-pgy9xu3x-170" value="" style="shape=waypoint;sketch=0;fillStyle=solid;size=6;pointerEvents=1;points=[];fillColor=none;resizable=0;rotatable=0;perimeter=centerPerimeter;snapToPoint=1;" vertex="1" parent="DW2b4gs_Y9G-pgy9xu3x-171">
          <mxGeometry x="32" y="32" width="20" height="20" as="geometry" />
        </mxCell>
        <mxCell id="DW2b4gs_Y9G-pgy9xu3x-184" style="edgeStyle=orthogonalEdgeStyle;rounded=0;orthogonalLoop=1;jettySize=auto;html=1;entryX=0.75;entryY=0;entryDx=0;entryDy=0;" edge="1" parent="1" source="DW2b4gs_Y9G-pgy9xu3x-174" target="DW2b4gs_Y9G-pgy9xu3x-176">
          <mxGeometry relative="1" as="geometry" />
        </mxCell>
        <mxCell id="DW2b4gs_Y9G-pgy9xu3x-174" value="Data weighter" style="whiteSpace=wrap;html=1;fillColor=none;strokeWidth=1;fontSize=10;container=0;" vertex="1" parent="1">
          <mxGeometry x="2695" y="990" width="60" height="60" as="geometry" />
        </mxCell>
        <mxCell id="DW2b4gs_Y9G-pgy9xu3x-193" style="edgeStyle=orthogonalEdgeStyle;rounded=0;orthogonalLoop=1;jettySize=auto;html=1;" edge="1" parent="1" source="DW2b4gs_Y9G-pgy9xu3x-175" target="DW2b4gs_Y9G-pgy9xu3x-174">
          <mxGeometry relative="1" as="geometry" />
        </mxCell>
        <mxCell id="DW2b4gs_Y9G-pgy9xu3x-175" value="Relationship between distance and weight" style="whiteSpace=wrap;html=1;fillColor=none;strokeWidth=1;fontSize=10;container=0;" vertex="1" parent="1">
          <mxGeometry x="2980" y="990" width="120" height="60" as="geometry" />
        </mxCell>
        <mxCell id="DW2b4gs_Y9G-pgy9xu3x-186" style="edgeStyle=orthogonalEdgeStyle;rounded=0;orthogonalLoop=1;jettySize=auto;html=1;exitX=1;exitY=0.5;exitDx=0;exitDy=0;entryX=0.5;entryY=0;entryDx=0;entryDy=0;" edge="1" parent="1" source="DW2b4gs_Y9G-pgy9xu3x-176" target="DW2b4gs_Y9G-pgy9xu3x-177">
          <mxGeometry relative="1" as="geometry" />
        </mxCell>
        <mxCell id="DW2b4gs_Y9G-pgy9xu3x-176" value="AutoEncoder" style="rounded=0;whiteSpace=wrap;html=1;fillColor=none;" vertex="1" parent="1">
          <mxGeometry x="2620" y="1080" width="140" height="30" as="geometry" />
        </mxCell>
        <mxCell id="DW2b4gs_Y9G-pgy9xu3x-187" style="edgeStyle=orthogonalEdgeStyle;rounded=0;orthogonalLoop=1;jettySize=auto;html=1;exitX=0.5;exitY=1;exitDx=0;exitDy=0;entryX=1;entryY=0.5;entryDx=0;entryDy=0;" edge="1" parent="1" source="DW2b4gs_Y9G-pgy9xu3x-177" target="DW2b4gs_Y9G-pgy9xu3x-178">
          <mxGeometry relative="1" as="geometry" />
        </mxCell>
        <mxCell id="DW2b4gs_Y9G-pgy9xu3x-177" value="&lt;div&gt;Latent representation&lt;/div&gt;" style="rounded=0;whiteSpace=wrap;html=1;fillColor=none;" vertex="1" parent="1">
          <mxGeometry x="2840" y="1120" width="90" height="30" as="geometry" />
        </mxCell>
        <mxCell id="DW2b4gs_Y9G-pgy9xu3x-188" style="edgeStyle=orthogonalEdgeStyle;rounded=0;orthogonalLoop=1;jettySize=auto;html=1;exitX=0.25;exitY=1;exitDx=0;exitDy=0;" edge="1" parent="1" source="DW2b4gs_Y9G-pgy9xu3x-178" target="DW2b4gs_Y9G-pgy9xu3x-87">
          <mxGeometry relative="1" as="geometry" />
        </mxCell>
        <mxCell id="DW2b4gs_Y9G-pgy9xu3x-178" value="&lt;div&gt;&lt;div&gt;LinearRegression&lt;/div&gt;&lt;/div&gt;" style="rounded=0;whiteSpace=wrap;html=1;fillColor=none;" vertex="1" parent="1">
          <mxGeometry x="2620" y="1160" width="140" height="30" as="geometry" />
        </mxCell>
        <mxCell id="DW2b4gs_Y9G-pgy9xu3x-185" style="edgeStyle=orthogonalEdgeStyle;rounded=0;orthogonalLoop=1;jettySize=auto;html=1;entryX=0.25;entryY=0;entryDx=0;entryDy=0;" edge="1" parent="1" source="DW2b4gs_Y9G-pgy9xu3x-179" target="DW2b4gs_Y9G-pgy9xu3x-176">
          <mxGeometry relative="1" as="geometry" />
        </mxCell>
        <mxCell id="DW2b4gs_Y9G-pgy9xu3x-179" value="ApEnLoss" style="rounded=0;whiteSpace=wrap;html=1;fillColor=none;" vertex="1" parent="1">
          <mxGeometry x="2625" y="990" width="60" height="60" as="geometry" />
        </mxCell>
        <mxCell id="DW2b4gs_Y9G-pgy9xu3x-191" style="edgeStyle=orthogonalEdgeStyle;rounded=0;orthogonalLoop=1;jettySize=auto;html=1;entryX=0.25;entryY=1;entryDx=0;entryDy=0;" edge="1" parent="1" source="DW2b4gs_Y9G-pgy9xu3x-180" target="DW2b4gs_Y9G-pgy9xu3x-175">
          <mxGeometry relative="1" as="geometry" />
        </mxCell>
        <mxCell id="DW2b4gs_Y9G-pgy9xu3x-180" value="Electrode placement map" style="rounded=0;whiteSpace=wrap;html=1;fontSize=10;container=0;fillColor=none;" vertex="1" parent="1">
          <mxGeometry x="2980" y="1080" width="60" height="100" as="geometry" />
        </mxCell>
        <mxCell id="DW2b4gs_Y9G-pgy9xu3x-192" style="edgeStyle=orthogonalEdgeStyle;rounded=0;orthogonalLoop=1;jettySize=auto;html=1;entryX=0.75;entryY=1;entryDx=0;entryDy=0;" edge="1" parent="1" source="DW2b4gs_Y9G-pgy9xu3x-181" target="DW2b4gs_Y9G-pgy9xu3x-175">
          <mxGeometry relative="1" as="geometry" />
        </mxCell>
        <mxCell id="DW2b4gs_Y9G-pgy9xu3x-181" value="Physiological and anatomical basis" style="whiteSpace=wrap;html=1;fillColor=none;strokeWidth=1;fontSize=10;container=0;" vertex="1" parent="1">
          <mxGeometry x="3040" y="1080" width="60" height="100" as="geometry" />
        </mxCell>
        <mxCell id="DW2b4gs_Y9G-pgy9xu3x-195" value="Data alignment" style="rounded=0;whiteSpace=wrap;html=1;fontSize=10;container=0;fillColor=none;" vertex="1" parent="1">
          <mxGeometry x="2850" y="1265" width="120" height="30" as="geometry" />
        </mxCell>
      </root>
    </mxGraphModel>
  </diagram>
</mxfile>
